<svg width="503" height="469" viewBox="0 0 503 469" fill="none" xmlns="http://www.w3.org/2000/svg">
<path d="M407.681 75.6241C435.246 109.545 451.5 153.363 451.5 199.997C451.5 247.356 435.24 290.449 407.681 324.37V315.186C431.711 282.673 445.85 243.108 445.85 199.991C445.85 156.886 431.717 117.31 407.681 84.7965V75.6241ZM407.681 269.966L409.802 271.368L416.164 267.839L407.681 264.304V269.966ZM407.681 253.005C413.342 253.706 421.107 248.051 421.808 239.579L416.865 240.28C414.744 245.229 411.917 248.758 407.675 247.356L407.681 253.005ZM407.681 235.338L408.388 234.631L409.802 236.746L414.744 232.504C407.681 221.9 408.388 212.71 412.629 212.015C417.584 211.296 421.107 219.072 420.4 226.849L426.061 223.32C423.941 214.13 418.992 208.474 411.922 208.474C410.508 208.474 409.1 209.175 407.681 209.888V235.338ZM407.681 199.997H423.941L427.475 194.353H407.687L407.681 199.997ZM407.681 176.686H418.291L421.113 170.324L407.687 171.025L407.681 176.686ZM407.681 163.254H418.291L421.113 157.599H407.687L407.681 163.254ZM375.179 43.117V50.8815C387.197 60.7785 398.502 72.0953 407.687 84.8083L407.681 75.6241C397.783 63.6121 387.197 53.0023 375.179 43.117ZM407.681 324.37V315.186C398.496 327.905 387.191 339.227 375.173 349.82V356.889C387.197 347.699 397.789 336.388 407.681 324.37ZM407.687 157.599H398.496L394.95 163.254H407.681L407.687 157.599ZM407.687 171.025H398.496L394.254 176.68H407.675L407.687 171.025ZM407.687 194.353H399.904C399.904 192.94 399.904 190.807 399.904 188.698H395.674C396.381 192.94 396.381 196.468 396.381 200.003C397.082 228.274 389.312 254.413 375.173 277.029V282.69C376.587 280.57 377.995 278.443 379.414 275.621C383.65 274.213 389.312 273.506 392.134 276.334C400.605 284.104 393.548 292.588 389.312 293.289C383.65 294.697 384.369 288.346 390.007 284.098C388.611 282.685 387.898 281.277 387.191 279.851C378.713 285.506 377.995 294.697 386.49 298.237C392.134 301.059 400.605 295.403 402.031 288.334C405.56 272.776 391.427 268.546 382.242 270.667C384.369 267.845 385.783 264.304 387.197 261.477L407.687 269.954L407.681 264.304L389.318 256.534C393.559 245.223 397.088 233.918 398.508 221.9H404.865L406.284 227.556C401.33 233.918 398.508 240.987 401.33 247.344C402.738 250.873 404.865 252.286 407.687 252.993V247.344H406.98C403.451 245.223 404.158 240.981 407.687 235.326L407.681 209.888C405.56 211.296 404.152 213.423 404.152 216.251H399.203C399.904 211.296 400.611 205.647 400.611 199.991L407.681 199.997L407.687 194.353ZM375.179 336.394V331.451H378.719V336.394H375.179ZM375.179 311.657V303.186C377.299 303.186 379.42 304.594 379.42 307.415C379.414 309.53 377.299 311.657 375.179 311.657ZM375.179 243.114V219.084C375.88 213.435 376.592 206.371 376.592 200.003C376.592 193.641 375.88 187.284 375.179 180.928V156.892C380.127 170.324 382.242 185.163 382.242 199.997C382.242 214.843 380.127 229.682 375.179 243.114ZM375.179 146.288V140.638C375.88 144.886 380.127 146.288 387.898 146.288V149.11C382.242 149.828 378 148.415 375.179 146.288ZM375.179 138.518V122.965L390.726 96.1016L375.179 98.9352V95.4064L403.451 90.452L378.006 131.442C376.592 134.276 375.179 136.403 375.179 138.518ZM375.179 69.9627V62.8993C376.592 62.8993 378 62.1865 379.42 61.4854L375.179 69.9627ZM330.652 16.2594C346.199 23.3229 361.752 32.5071 375.179 43.117V50.8815C361.758 39.5764 346.199 30.3922 330.652 22.6218V16.2594ZM375.173 356.889C361.752 367.487 346.199 376.671 330.652 383.746V377.384C346.199 370.315 361.746 360.418 375.173 349.82V356.889ZM375.179 62.8993V69.9627L361.758 97.5331L375.179 95.4241V98.9529L351.849 102.488L367.402 69.2735C356.792 74.923 342.676 80.5726 330.658 81.2913V77.7508C344.791 77.038 361.039 69.2558 375.179 62.8993ZM375.179 122.965L371.644 128.62C368.097 134.983 369.535 142.046 375.179 146.288V140.638C375.179 139.925 375.179 139.224 375.179 138.518V122.965ZM375.179 156.892C366.701 132.161 350.441 110.953 330.652 96.1075V103.189C353.982 122.27 370.224 149.834 375.179 180.928V156.892ZM375.179 219.084V243.114C366.701 267.851 350.441 289.047 330.652 304.605V296.829C353.982 277.736 370.224 250.178 375.179 219.084ZM375.173 277.029L375.179 282.685C370.224 290.455 364.58 297.53 358.212 303.887L364.58 312.37C361.039 315.192 356.792 318.019 353.269 320.847C349.734 322.968 352.562 328.623 357.511 323.669C361.758 319.427 365.982 314.485 370.937 318.014C375.88 320.841 374.472 326.491 370.224 331.445L375.179 331.451V336.388L365.982 337.802L363.861 342.744L359.631 342.037L361.752 337.095L353.982 338.497V335.687C359.631 334.285 363.861 332.152 366.695 327.916C369.529 323.669 365.281 321.56 361.752 325.796C358.206 329.342 349.734 332.871 346.906 330.744C341.245 325.796 346.906 317.33 357.505 313.083L353.976 308.14C346.906 314.497 339.124 320.853 330.646 325.802V321.566C348.32 310.249 363.855 294.697 375.173 277.029ZM375.179 303.186C372.351 303.186 370.937 304.594 370.937 307.415C370.937 309.53 372.345 311.657 375.179 311.657V303.186ZM330.652 344.164L334.894 353.354H341.251L330.652 332.158V344.164ZM330.652 269.966V265.023H341.969V140.638H330.652V134.983H346.912V269.966H330.652ZM330.652 254.413C332.767 252.304 334.181 249.471 334.181 246.643C334.181 243.821 332.773 240.999 330.652 239.579V254.413ZM330.652 237.459C331.359 236.752 332.767 234.637 332.767 231.809C332.767 229.694 332.066 227.567 330.652 225.452V237.459ZM330.652 206.365V165.375H332.767L336.302 172.433H331.359V207.055L330.652 206.365ZM330.652 161.133V151.943C332.767 151.943 334.894 154.058 334.894 156.886C334.894 159.013 332.767 161.133 330.652 161.133ZM318.634 12.0178V17.6674C322.175 19.7764 326.411 21.2021 330.652 22.6159V16.2594C326.411 14.8515 322.175 13.4317 318.634 12.0178ZM330.652 383.746V377.384C326.411 378.798 322.175 380.931 318.634 382.327V388.689C322.175 386.568 326.411 385.16 330.652 383.746ZM330.652 77.739C326.411 77.739 322.175 77.739 318.634 76.331V79.8598C322.175 81.2796 325.698 81.2795 330.652 81.2795V77.739ZM330.652 96.1075C326.411 92.5787 322.175 90.4638 318.634 87.6361V94.7054C322.888 97.5272 326.411 100.361 330.652 103.189V96.1075ZM330.652 134.983V140.638H318.634V134.983H330.652ZM330.652 151.943V161.133C327.824 161.133 325.698 159.019 325.698 156.892C325.698 154.07 327.824 151.943 330.652 151.943ZM330.652 165.375V206.365L324.29 202.825V192.928C322.888 194.342 320.761 195.75 318.634 196.462V186.559L320.761 190.1C322.169 189.393 323.583 187.979 324.29 187.278V183.738C323.583 183.738 323.583 183.738 323.583 183.738C322.888 182.336 320.761 181.623 318.634 181.623V177.375C320.761 178.082 322.888 179.496 324.29 181.623V173.151H318.634V161.84C319.341 163.254 320.761 163.961 322.175 165.387H324.29C322.175 163.266 320.054 160.438 318.634 158.312V152.656C322.175 156.898 324.29 161.846 328.537 165.381L330.652 165.375ZM330.652 225.452C328.537 224.039 326.411 222.619 322.175 222.619H318.634V228.981H320.761C323.583 228.981 325.698 229.688 325.698 232.516C325.698 235.344 323.583 236.051 320.761 236.051H318.634V241.7H321.468C324.29 241.7 326.411 243.12 326.411 245.948C326.411 249.482 324.997 251.597 321.468 251.597H318.634V257.253H320.054C326.411 257.253 328.531 256.546 330.652 254.425V239.579C329.945 238.867 329.238 238.872 328.537 238.872C329.238 238.165 329.945 238.166 330.652 237.459V225.452ZM330.652 265.023H318.634V269.966H330.652V265.023ZM330.652 296.829C326.411 300.358 322.888 303.192 318.634 305.301V312.364C322.175 310.249 326.411 307.415 330.652 304.605V296.829ZM330.652 321.554C326.411 324.376 322.175 326.497 318.634 328.623V332.865C320.054 332.158 321.468 331.451 322.888 330.738L326.416 336.394L318.64 340.641V346.297L328.543 341.336L330.658 344.158V332.152L327.83 327.204C328.543 327.204 329.244 326.491 330.658 325.784L330.652 321.554ZM315.818 10.604C316.519 11.305 317.208 11.305 318.634 12.0178V17.6674C317.214 17.6674 316.525 17.6674 315.818 16.9605V10.604ZM318.634 388.689C317.214 388.689 316.519 388.695 315.812 389.396V383.04C316.513 383.04 317.208 382.327 318.634 382.327V388.689ZM318.634 76.331V79.8598C317.214 79.8598 316.519 79.1529 315.812 79.1529V75.6241C316.519 75.6241 317.214 76.331 318.634 76.331ZM318.634 87.6361V94.7054C317.933 93.9984 316.519 93.2856 315.812 93.2856V86.2222C316.519 86.9232 317.214 86.9232 318.634 87.6361ZM318.634 134.983H315.812V140.638H318.634V134.983ZM318.634 152.656C317.933 151.949 316.519 151.236 315.812 150.529V155.472C316.513 156.185 317.927 156.886 318.634 158.294V152.656ZM318.634 161.84C317.214 161.133 316.519 160.432 315.812 159.725V165.381V173.145L318.634 173.151V161.84ZM318.634 177.393C317.933 177.393 316.519 177.393 315.812 177.393V182.347C316.513 182.347 317.927 181.634 318.634 181.634V177.393ZM318.634 186.571L315.812 183.037V190.807L316.513 191.514H315.812V196.462C316.513 196.462 317.927 196.462 318.634 196.462V186.571ZM318.634 222.619V228.981H315.812V222.619H318.634ZM318.634 236.051V241.7L315.812 241.694V236.045L318.634 236.051ZM318.634 251.585V257.241H315.812V251.585H318.634ZM318.634 265.023V269.966H315.812V265.023H318.634ZM318.634 305.301V312.364C317.214 313.071 316.519 313.071 315.812 313.778V306.709C316.519 306.714 317.933 306.007 318.634 305.301ZM318.634 328.623V332.865C317.933 333.566 316.519 333.566 315.812 334.279V330.031C316.519 329.33 317.933 329.33 318.634 328.623ZM318.634 340.635V346.291L317.214 346.986C318.634 352.647 317.933 357.59 315.818 361.119V341.342L318.634 340.635ZM312.271 9.89705V16.2653C313.691 16.2653 315.105 16.9723 315.818 16.9723V10.604C315.105 10.5981 313.691 9.89705 312.271 9.89705ZM315.812 389.396V383.04C315.105 383.746 313.697 383.746 312.271 384.453V390.109C313.691 390.109 315.099 389.396 315.812 389.396ZM315.812 75.6241C315.105 74.9113 313.697 74.9113 312.271 74.2161V77.038C313.691 77.7449 314.386 78.4518 315.818 79.147L315.812 75.6241ZM315.812 86.2222C315.105 85.5152 313.697 84.8083 312.271 84.1014V91.1707C313.691 91.8776 315.099 92.5846 315.812 93.2856V86.2222ZM315.812 134.983V140.638H312.271V134.983H315.812ZM315.812 150.529V155.472C315.105 154.064 314.392 153.363 313.697 152.65C312.996 152.65 312.996 151.943 312.277 151.943V147.702C312.996 147.702 312.996 148.409 312.996 148.409C314.386 149.116 315.099 149.828 315.812 150.529ZM315.818 159.72V165.375L312.271 162.541V157.599C313.691 158.3 315.105 159.013 315.818 159.72ZM315.818 165.375V173.14H312.271V165.375H315.818ZM315.812 177.393V182.347L315.818 183.048V190.819L312.271 185.876V177.393C312.99 177.393 313.691 177.393 314.386 177.393C315.105 177.393 315.099 177.393 315.812 177.393ZM315.818 191.52V196.468C314.392 196.468 313.697 196.468 312.271 195.75V191.514C313.691 191.52 314.386 191.52 315.818 191.52ZM315.812 222.619H312.271V228.981H315.812V222.619ZM315.812 236.045H312.271V241.694H315.812V236.045ZM315.812 251.585H312.271V257.241H315.812V251.585ZM315.812 265.023H312.271V269.966H315.812V265.023ZM315.818 306.714C315.111 307.415 313.697 308.134 312.271 308.829V315.899C313.691 315.192 315.105 314.491 315.818 313.784V306.714ZM315.818 330.037C315.111 330.037 313.697 330.738 312.271 331.451V335.693C313.691 334.992 315.105 334.291 315.818 334.291V330.037ZM315.818 341.342L314.392 342.049L312.277 337.107V364.665C313.697 363.97 315.111 362.556 315.824 361.136L315.818 341.342ZM307.329 8.48319C308.743 8.48319 310.869 9.2019 312.271 9.89705V16.2594C310.869 15.5466 308.743 14.8456 307.329 14.1386V8.48319ZM312.271 390.109C310.869 390.81 308.743 391.523 307.329 392.23V385.873C308.743 385.16 310.869 385.16 312.271 384.453V390.109ZM312.271 74.2161V77.038C312.271 77.038 312.271 77.0379 312.271 76.331V73.4974C312.271 73.4974 312.271 73.4974 312.271 74.2161ZM312.271 84.1014V91.1707C310.869 89.7686 308.743 89.0558 307.329 88.3489V81.9865C308.743 82.6875 310.869 83.3945 312.271 84.1014ZM312.271 134.983H307.329V140.638H312.271V134.983ZM312.277 147.702C310.875 147.001 308.743 146.288 307.329 145.587V150.529H308.036C309.444 150.529 310.869 151.236 312.277 151.943V147.702ZM312.271 157.599C312.271 156.892 311.57 156.892 311.57 156.892C310.162 155.478 308.748 154.777 307.329 154.777V159.72H308.036L312.271 162.541V157.599ZM312.271 165.375H307.329V173.14H312.271V165.375ZM312.271 177.393C310.162 177.393 308.743 178.094 307.329 179.508V193.635C308.743 194.348 310.156 195.75 312.271 195.75V191.514C310.869 191.514 310.162 190.801 309.45 190.1C308.042 187.979 308.748 185.858 311.57 183.732L312.271 185.853V177.393ZM312.271 222.619V228.981V236.045V241.694V251.585V257.241L307.329 257.247V222.619H312.271ZM312.271 265.023V269.966H307.329V265.023H312.271ZM312.271 308.829V315.899C310.869 316.611 308.743 317.318 307.329 318.726V311.657C308.743 310.956 310.869 310.249 312.271 308.829ZM312.271 331.451V335.693C312.271 335.693 312.271 335.693 311.57 335.693L312.277 337.107V364.665C310.875 365.378 308.743 365.378 307.329 365.378V361.843C311.57 362.55 313.691 356.194 310.869 349.826C309.45 349.826 308.042 350.527 307.329 350.527V344.877C308.036 344.164 308.036 344.164 308.743 343.469L307.329 339.928V333.566C308.743 332.865 310.869 332.158 312.271 331.451ZM251.503 0V6.36239C270.573 6.36239 289.667 9.19012 307.335 14.1328V8.48319C289.661 2.83362 270.573 0 251.503 0ZM307.329 392.23V385.873C289.661 391.523 270.573 394.345 251.497 394.345V399.994C270.573 400 289.661 397.172 307.329 392.23ZM307.329 81.9865C290.368 73.5033 271.292 69.2558 251.497 69.2558V74.9054C271.286 74.9054 290.368 79.8539 307.329 88.3371V81.9865ZM307.329 134.983H290.368V265.023H281.89V257.247H275.533L272.712 253.005V238.16C274.832 235.338 276.24 236.746 279.062 231.084L280.476 226.849C281.89 226.148 282.597 223.32 282.597 220.486H276.941C276.941 226.142 271.993 228.263 269.171 228.263V217.664C271.292 216.963 272.712 216.963 275.533 213.423L277.643 209.888C279.056 209.175 279.763 208.474 280.47 207.055V204.233H273.407L272.706 209.175H264.929V202.112C268.47 199.997 273.407 197.87 274.12 192.928C274.832 192.928 277.648 190.807 278.361 190.807V186.565H272.712L270.579 190.118C269.177 192.94 262.808 192.233 263.515 192.233V184.456C267.062 183.048 270.579 180.922 271.999 178.094L275.539 176.692V171.036H269.177C269.177 173.151 267.757 175.278 265.636 176.692C264.234 176.692 263.515 176.692 262.101 176.692V169.623C265.636 167.502 269.872 166.076 270.573 161.139L274.12 159.72V155.478H267.751C267.751 156.892 265.636 159.024 264.929 160.432H261.383V154.771C264.929 152.65 267.05 149.823 267.745 145.581L271.993 144.88V139.925H265.63C264.228 146.288 261.383 146.288 259.98 145.581V139.925C263.509 137.811 263.509 137.104 267.05 133.563C269.872 132.155 271.993 125.793 269.165 126.5H266.343C264.228 126.5 264.228 130.04 262.797 131.442C262.095 131.442 259.975 132.149 258.555 132.149V125.787C262.095 125.086 266.337 122.252 267.044 118.011H269.159C269.159 117.31 269.159 115.896 269.86 114.476C267.739 114.476 265.618 114.476 264.216 114.476C263.498 117.304 261.377 118.729 259.262 119.424C256.44 117.31 255.721 117.31 255.02 113.775C255.02 108.82 259.969 104.579 256.434 98.9234L255.721 95.3887C255.721 89.7392 253.6 89.0263 251.485 86.9055V269.948H307.317V265H294.592V140.638H307.317V134.983H307.329ZM307.329 145.587V150.529H303.087L300.265 145.587H307.329ZM307.329 154.777V159.72H303.794L300.265 154.076C302.374 154.076 303.794 154.076 305.915 154.076C306.622 154.07 306.622 154.07 307.329 154.777ZM307.329 165.375V173.14H303.794L300.972 165.375H307.329ZM307.329 179.508V193.635C305.214 191.52 303.794 189.393 303.794 186.565C303.087 183.744 304.507 180.922 307.329 179.508ZM307.329 222.619H305.921V257.247H307.329V222.619ZM307.329 311.657C290.368 320.134 271.292 325.089 251.497 325.089V330.732C271.286 330.732 290.368 326.491 307.329 318.726V311.657ZM307.329 333.566C289.661 340.635 271.292 344.871 251.497 344.871V373.844L255.032 376.671V364.653C257.854 363.245 259.981 362.544 262.095 361.125C267.05 357.584 275.528 354.768 277.643 359.711C279.056 363.958 271.292 366.78 264.929 365.366C264.228 367.481 263.509 369.614 262.802 371.022C268.47 371.729 277.648 372.43 280.476 366.067C283.298 359.01 281.177 352.653 271.292 352.653C266.343 351.946 260.682 354.768 255.032 357.596V348.406C273.407 348.406 290.368 344.871 306.622 338.503L307.329 339.928V333.566ZM307.329 344.877C294.604 350.527 296.023 361.131 303.794 364.653C304.501 364.653 305.915 365.366 307.329 365.366V361.832C306.622 361.832 305.214 361.125 304.507 361.125C300.271 358.303 300.972 353.354 307.329 350.527V344.877ZM251.503 46.6457V40.9962L268.47 12.7248L282.597 58.6636C286.132 69.9627 292.483 70.6756 300.271 60.7726L302.38 62.8934C293.196 75.6123 279.763 72.0835 276.235 61.4795L264.929 26.1388L251.503 46.6457ZM251.503 400C228.173 400 204.856 395.753 183.653 387.982V381.632C204.856 389.39 228.173 394.35 251.503 394.35V400ZM183.653 12.0178C204.856 4.24159 228.173 0 251.503 0V6.36239C228.173 6.36239 204.856 10.604 183.653 18.3802V12.0178ZM251.503 40.9962V46.6457L243.726 59.3646L229.599 26.1388C224.656 45.2201 214.046 70.6697 198.505 72.7787L196.384 71.3707C217.599 63.6003 223.242 33.921 231.007 12.012L246.566 48.7548L251.503 40.9962ZM251.503 69.2617V74.9113C226.771 74.9113 203.448 82.6875 183.653 95.4123V88.343C203.442 76.331 226.765 69.2617 251.503 69.2617ZM251.503 86.9232V269.966H183.653V265.023H207.684V140.638H183.653V134.983H212.632V265.023H221.104V257.948H226.765L230.294 253.005V238.16C226.765 236.039 223.938 233.217 222.53 226.849L219.702 225.447V221.199H224.656C225.357 226.148 228.892 228.263 231.714 228.263V217.664C228.892 217.664 226.771 215.544 224.656 211.302L223.944 209.181C222.536 209.181 221.116 208.48 220.409 207.061V204.239H227.472L228.174 209.181H231.714L232.421 202.118C228.886 199.296 226.064 195.75 223.944 191.52C223.237 191.52 222.536 190.813 221.823 190.813C221.823 189.405 221.823 187.991 221.823 186.571H227.478V190.118C227.478 192.94 233.841 192.233 233.841 192.233L233.14 184.456C230.306 183.749 227.478 180.215 225.363 177.393L222.541 176.692V172.444H228.898C228.898 173.852 229.605 175.266 231.72 176.692C232.427 176.692 233.841 176.692 235.261 176.692V169.623C231.007 167.502 228.185 164.668 227.484 159.72H224.662V155.472H231.007C231.007 156.886 231.72 159.019 233.14 160.427L235.956 159.708V154.771C232.427 152.65 229.605 149.823 228.898 145.581L225.363 144.88V139.925H230.306C231.72 146.288 235.261 146.288 237.382 145.581V139.925C233.841 138.518 231.007 137.104 230.306 133.563C227.484 132.155 224.662 127.201 227.484 127.201H230.306C232.427 127.201 233.14 130.741 234.554 132.862C235.261 132.862 236.663 132.862 237.382 132.862V126.5C233.841 126.5 231.007 122.258 230.306 118.016H228.185C227.484 117.315 227.484 115.902 227.484 114.482C229.605 114.482 231.013 114.482 233.146 114.482C233.847 117.31 235.962 118.735 238.083 119.43L239.491 117.315C239.491 115.896 239.491 114.488 239.491 113.068C238.083 107.412 235.261 103.177 240.91 98.9352L238.79 93.2797C237.387 81.9806 242.336 85.5094 246.566 81.9806C247.279 80.5608 249.4 81.2737 250.107 82.6816C250.089 84.8083 250.79 86.2222 251.503 86.9232ZM251.503 325.095V330.738C226.771 330.738 203.448 323.675 183.653 311.663V305.306C203.442 317.318 226.765 325.095 251.503 325.095ZM251.497 344.871V373.844L250.796 372.436V366.073C243.025 368.895 234.542 370.327 227.472 366.786C221.817 363.251 219.702 357.596 228.174 354.067C233.134 351.245 238.778 351.245 245.146 354.774C243.726 355.475 242.324 356.889 241.617 358.309C233.835 355.481 228.173 357.602 228.886 361.131C229.593 365.372 237.37 365.372 250.796 360.418L250.095 348.406C236.657 348.406 223.944 346.992 211.218 343.463L202.028 368.895L199.907 362.539L206.27 341.331C202.028 340.629 197.786 338.503 193.556 337.095L192.849 340.635C196.378 342.043 198.499 345.584 197.079 350.527C195.677 355.475 190.729 358.303 183.659 359.01V353.348C188.608 354.061 192.855 353.348 193.562 349.82C194.257 346.291 190.734 343.463 183.659 343.463V338.503L187.194 339.222L188.608 334.974C187.194 334.273 185.78 333.56 183.659 332.152V327.911C190.016 331.445 196.378 334.279 202.747 336.382C200.626 330.025 197.786 325.778 192.137 325.778V320.835C198.499 322.249 204.149 326.485 208.396 334.968H213.345L214.046 339.917C226.059 342.756 238.766 344.871 251.497 344.871ZM183.653 257.247H188.602L194.953 228.268V257.247H201.321V222.619H191.424L185.067 250.183L183.653 245.235V257.247ZM183.653 189.405H190.723V204.25L197.073 209.193V173.151H202.028L199.907 166.076H183.653V173.151H190.723V182.347H183.653V189.405ZM183.653 83.3945C186.481 79.8539 187.188 74.9113 186.481 69.2617H183.653V83.3945ZM183.653 387.982V381.632C172.342 377.384 161.042 371.729 150.432 365.372V372.436C161.042 378.804 172.342 383.746 183.653 387.982ZM150.432 27.5704V34.6338C161.042 28.2714 172.342 22.6218 183.653 18.3802V12.0178C172.342 16.2594 161.042 21.909 150.432 27.5704ZM183.653 69.2617C185.067 81.9865 180.112 86.2222 169.52 80.5608L150.438 71.3766V79.848L167.399 87.6243C173.768 90.4461 180.118 88.3312 183.659 83.3827L183.653 69.2617ZM183.653 88.343C170.94 96.1016 159.628 106.01 150.432 117.315V126.506C159.628 114.488 170.928 103.189 183.653 95.4182V88.343ZM183.653 134.983H155.381V265.023V269.966H183.653V265.023H160.33V140.638H183.653V134.983ZM183.653 166.076H165.979L168.1 173.151H171.641V182.347C165.979 184.456 165.272 186.577 168.819 192.238C170.221 195.066 173.066 197.181 176.589 197.181C178.704 195.072 178.003 192.945 178.003 189.411L183.653 189.405V182.347L178.003 182.341V173.151H183.653V166.076ZM183.653 245.235L178.704 222.613H168.1V257.241H175.17V228.263L181.526 257.241H183.647L183.653 245.235ZM183.653 305.306C170.94 296.829 159.628 286.225 150.432 273.5V282.685C159.628 294.697 170.928 303.887 183.653 311.651V305.306ZM183.653 327.916C183.653 327.916 182.946 327.21 182.239 327.21L180.118 330.738C181.532 331.451 182.946 332.152 183.659 332.152L183.653 327.916ZM183.653 338.509H181.532C177.291 331.451 171.641 327.21 165.272 327.21C158.922 327.21 153.979 332.865 161.042 346.992L165.979 344.877C161.749 340.641 159.628 335.687 163.151 332.865C165.979 329.33 170.221 332.158 174.469 338.509L173.768 339.928L174.469 344.164C178.009 343.469 181.532 343.463 183.659 343.463L183.653 338.509ZM183.653 353.354C182.239 353.354 180.112 352.659 178.704 351.952V358.309C180.825 359.016 182.239 359.016 183.653 359.016V353.354ZM150.432 295.403V286.932C153.254 286.932 155.381 288.346 155.381 291.174C155.381 293.283 153.266 295.403 150.432 295.403ZM150.432 372.436C149.725 371.729 149.024 371.028 148.317 371.028V363.964C149.024 364.659 149.725 365.372 150.432 365.372V372.436ZM148.317 28.9724C149.024 28.9724 149.725 28.2714 150.432 27.5704V34.6338C149.725 35.3407 149.024 35.3407 148.317 36.0418V28.9724ZM150.432 71.3825V79.8539L148.317 78.4459V70.6756L150.432 71.3825ZM150.432 117.315V126.506C149.725 127.919 149.024 129.327 148.317 130.046V120.143C149.024 119.436 149.725 118.016 150.432 117.315ZM150.432 273.5V282.685C149.725 281.984 149.024 280.57 148.317 279.863V269.972C149.024 271.374 149.725 272.087 150.432 273.5ZM150.432 286.932V295.403C149.725 295.403 149.024 294.691 148.317 294.691V287.633C149.024 286.926 149.725 286.932 150.432 286.932ZM148.317 305.301V301.053C149.024 301.76 149.725 302.467 150.432 303.18L148.317 305.301ZM148.317 371.028V363.964C144.081 361.136 139.846 358.309 135.592 355.481V362.55C139.84 365.372 144.081 368.206 148.317 371.028ZM135.592 37.4556V44.525C139.846 41.7031 144.081 38.8636 148.317 36.0418V28.9783C144.081 31.8061 139.84 34.6338 135.592 37.4556ZM148.317 70.6756L135.592 64.3073V72.7846L148.317 78.4459V70.6756ZM148.317 120.143C143.369 126.506 139.121 132.868 135.592 139.925V153.357C139.127 145.581 143.369 137.805 148.317 130.046V120.143ZM148.317 269.966C143.369 262.902 139.121 255.12 135.592 246.643V260.069C139.127 267.132 143.369 273.494 148.317 279.851V269.966ZM148.317 287.633C146.903 288.34 146.202 289.041 146.202 291.168C146.202 292.582 146.903 293.996 148.317 294.702V287.633ZM148.317 301.053C143.369 296.817 139.121 291.875 135.592 286.225V291.168L140.541 297.53L135.592 301.065V308.14L143.369 301.772C144.788 303.192 146.196 304.599 147.61 306.019L148.317 305.312V301.053ZM135.592 107.424V99.6539L138.414 101.068L135.592 91.8718V79.8539L144.081 110.24L135.592 107.424ZM135.592 362.55C125.701 355.481 116.51 346.992 107.326 338.509V330.037C115.803 339.233 125.701 347.711 135.592 355.481V362.55ZM107.326 61.4854C116.51 53.0081 125.701 44.525 135.592 37.4556V44.525C125.701 52.3012 115.809 60.7785 107.326 69.9627V61.4854ZM135.592 64.3073V72.7846L133.471 72.0835L135.592 79.848V91.8718L126.408 60.0716L135.592 64.3073ZM135.592 99.648V107.418L109.447 98.2341C120.057 115.189 132.069 139.925 122.879 152.644L120.057 153.357C127.12 137.092 117.223 118.011 107.332 100.349V89.751L135.592 99.648ZM135.592 139.925V153.357C129.942 168.197 126.408 183.738 126.408 199.997C126.408 216.256 129.942 231.803 135.592 246.643V260.069C126.408 242.395 120.752 221.894 120.752 199.991C120.752 178.094 126.408 157.599 135.592 139.925ZM135.592 286.225V291.168L130.643 285.518C128.534 294.702 123.58 296.823 115.096 292.588C115.096 299.651 122.172 303.192 130.643 304.605L135.592 301.065V308.14L122.879 318.732L121.459 313.077L126.413 308.134C108.746 303.192 108.746 294.007 112.987 283.392C118.637 291.168 124.299 290.461 126.413 279.857C122.879 274.914 120.057 269.259 117.217 263.609L107.326 267.138V250.884C109.441 253.005 110.148 256.54 111.567 260.075L115.102 258.667C112.28 251.597 109.447 244.534 107.332 237.459V215.55C108.746 228.274 111.573 240.286 116.516 251.591C120.063 247.356 121.465 242.401 118.637 237.459L122.885 235.344C125 240.999 124.298 248.057 120.063 256.552L122.184 260.781L120.764 262.201C124.994 270.673 129.942 279.156 135.592 286.225ZM107.326 338.509V330.037C105.217 327.215 103.084 324.382 100.268 321.566V330.75C103.084 333.566 105.211 335.687 107.326 338.509ZM100.268 69.2617V78.4577C103.09 75.6359 105.217 72.7964 107.326 69.9745V61.4972C105.211 64.3073 103.084 67.135 100.268 69.2617ZM107.326 89.7627L100.268 86.9291C102.383 91.1766 105.217 96.1133 107.326 100.361V89.7627ZM107.326 215.544C107.326 210.601 106.619 204.94 106.619 199.997H103.084C103.084 204.245 103.084 207.767 103.084 211.302L100.262 212.021V217.664L104.498 216.963L105.912 226.849L100.262 227.562V233.924L106.613 232.51C106.613 234.625 107.32 236.045 107.32 237.453L107.326 215.544ZM107.326 250.884C105.918 248.057 103.084 245.942 100.268 245.235V251.591C103.09 253.706 105.217 259.356 106.619 267.851L107.326 267.138V250.884ZM100.268 271.374V265.029C101.676 265.724 102.383 266.425 103.09 267.851L100.268 271.374ZM100.268 178.094V172.444H107.326L104.504 178.094H100.268ZM100.268 165.375V159.013H107.326L105.211 165.375H100.268ZM100.268 330.738C94.6065 323.675 88.9567 315.899 83.3011 308.134V296.823C88.2557 305.301 93.9054 313.79 100.268 321.566V330.738ZM83.3011 91.8777C88.9567 84.1014 94.6065 76.331 100.268 69.2617V78.4577C93.9054 86.2222 88.2557 94.7113 83.3011 103.189V91.8777ZM100.268 159.013V165.375H83.3011V161.133L84.7091 159.019L100.268 159.013ZM100.268 172.438H84.7091L83.3011 173.846V178.088L100.268 178.094V172.438ZM100.268 212.021V217.664H94.6065L96.0204 228.263L100.268 227.556V233.918L83.3011 236.027V231.073L89.6578 229.671L88.2557 219.067C86.8359 219.067 84.7091 218.354 83.3011 218.354V212.009C84.0022 212.009 84.7091 212.009 84.7091 212.009C86.83 211.29 87.5311 209.175 86.83 207.049C86.1289 204.934 84.7091 203.514 83.2952 203.514V197.152C88.2498 196.451 93.1926 199.974 94.6006 212.003H100.268V212.021ZM100.268 245.235V251.591C99.5551 250.884 98.8482 250.879 97.4461 250.879C91.0835 250.879 91.7846 259.35 95.3193 262.896C97.4461 263.603 98.8541 263.603 100.274 265.017V271.362L99.561 272.075L93.2043 270.667L86.8418 274.201C86.1407 274.902 84.7209 275.609 83.307 275.609V267.845L84.0081 267.132L86.8359 269.253L89.6578 266.425L83.3011 262.896V257.241L88.2557 260.77C86.8359 251.585 89.6578 245.936 96.7273 245.229C98.1412 245.229 99.5551 245.235 100.268 245.235ZM83.3011 308.134V296.823C67.0412 268.552 57.8567 235.338 57.8567 199.997C57.8567 164.662 67.0471 131.442 83.3011 103.177V91.8659C63.5182 122.959 51.5 160.427 51.5 199.997C51.4941 239.579 63.5123 277.029 83.3011 308.134ZM83.3011 161.133L81.1861 165.375H83.3011V161.133ZM83.3011 173.846V178.088L80.4792 178.094L83.3011 173.846ZM83.3011 197.175C79.7605 197.882 76.2316 202.124 76.2316 207.773C76.2316 212.716 78.3583 216.257 83.3011 218.371V212.027C81.8813 212.027 80.4792 210.607 80.4792 208.48C79.7663 206.365 80.4792 203.532 82.5883 203.532C82.5883 202.831 83.3011 202.831 83.3011 203.532V197.175ZM83.3011 231.09H81.1861C80.4792 227.562 79.0594 224.033 76.9385 220.492L74.1166 221.906C78.3642 230.377 74.8177 236.033 70.5818 231.803C65.6332 227.562 69.1679 219.084 70.5818 213.429L68.461 212.716C64.9203 220.492 62.8054 227.567 68.461 236.039C72.7145 242.401 76.9385 240.28 81.1861 236.746L83.3011 236.039V231.09ZM83.3011 257.241L78.3583 254.419L76.2316 257.96L83.3011 262.914V257.241ZM83.3011 267.851L79.0535 271.38L81.1802 274.213C81.8754 274.914 82.5824 275.621 83.2952 275.621L83.3011 267.851Z" fill="#0089CF"/>
<path d="M488.307 467.883V464.911C488.307 464.911 488.307 464.911 488.51 464.911C489.734 464.911 490.756 464.355 491.773 463.61V454.882C490.957 455.255 489.531 455.996 488.303 456.368V454.137C489.94 453.58 491.16 453.024 491.773 452.466V451.166C491.773 448.194 490.348 446.71 488.303 446.338V443.924C488.914 443.737 489.323 443.737 489.94 443.737C492.593 443.737 494.839 444.479 496.265 445.593C498.102 447.079 498.715 449.122 498.715 451.349V461.562C498.715 463.976 499.536 464.719 500.352 464.719C501.17 464.719 501.781 464.532 502.391 464.347L503 466.209L496.673 468.992C495.445 468.992 494.427 468.621 493.607 467.878C492.791 467.133 492.383 466.392 492.178 465.835C490.961 466.584 489.535 467.327 488.307 467.883ZM488.307 443.93C485.044 444.673 481.777 446.344 479.939 447.458C478.709 448.386 478.101 449.129 478.101 450.055C478.101 451.543 480.351 452.656 481.777 452.656C482.792 452.656 483.614 452.1 484.019 451.172C484.431 449.312 484.839 448.015 485.448 447.272C486.059 446.715 486.878 446.344 487.901 446.344C488.1 446.344 488.1 446.344 488.307 446.344V443.93ZM488.307 454.142C486.059 454.885 483.405 455.627 481.777 456.372C478.918 457.484 477.492 459.342 477.492 462.128C477.492 465.469 480.55 468.998 485.247 468.998C486.063 468.998 487.084 468.627 488.311 467.883V464.911C486.674 464.911 484.839 463.425 484.839 461.013C484.839 458.968 485.655 457.856 487.286 456.926C487.698 456.737 487.901 456.554 488.307 456.37V454.142ZM364.799 467.883V464.911C364.799 464.911 364.799 464.911 365.002 464.911C366.233 464.911 367.25 464.355 368.269 463.61V454.882C367.451 455.255 366.022 455.996 364.796 456.368V454.137C366.432 453.58 367.652 453.024 368.269 452.466V451.166C368.269 448.194 366.84 446.71 364.796 446.338V443.924C365.409 443.737 365.821 443.737 366.432 443.737C369.086 443.737 371.331 444.479 372.761 445.593C374.597 447.079 375.208 449.122 375.208 451.349V461.562C375.208 463.976 376.026 464.719 376.842 464.719C377.661 464.719 378.274 464.532 378.883 464.347L379.494 466.209L373.169 468.992C371.939 468.992 370.921 468.621 370.101 467.878C369.285 467.133 368.879 466.392 368.674 465.835C367.455 466.584 366.026 467.327 364.799 467.883ZM400.12 450.8C399.913 449.872 399.304 445.972 398.692 444.673C397.259 444.117 395.425 443.747 392.771 443.747C386.44 443.747 382.566 447.089 382.566 451.359C382.566 455.63 387.465 457.671 390.321 458.786C393.586 459.9 394.814 461.571 394.814 463.614C394.814 465.656 393.386 466.771 391.34 466.771C387.87 466.771 384.808 463.055 383.788 459.715L381.748 459.9C381.748 462.314 382.359 466.028 382.57 466.771C383.792 467.883 387.057 469 390.324 469C395.429 469 401.143 466.582 401.143 461.015C401.143 456.928 397.669 454.702 393.183 453.032C390.324 452.104 388.487 450.802 388.487 448.945C388.487 447.272 389.916 445.972 391.961 445.972C393.797 445.972 396.245 447.457 397.882 451.357L400.12 450.8ZM407.058 462.684C407.058 466.026 406.65 466.216 403.18 466.584V468.444H416.652V466.584C414.204 466.216 414 466.026 414 462.684V449.684C415.225 448.202 416.857 447.643 418.492 447.643C420.941 447.643 422.776 449.314 422.776 453.028V462.684C422.776 466.026 422.37 466.216 419.921 466.584V468.444H432.986V466.584C430.127 466.216 429.719 466.026 429.719 462.684V452.1C429.719 446.715 427.065 443.745 421.757 443.745C418.693 443.745 415.836 445.414 414 447.087V430C410.526 430.745 406.65 431.486 403.385 431.86V433.531C406.857 433.9 407.058 433.9 407.058 437.057V462.684ZM437.682 462.312C437.682 467.14 440.131 469 444.419 469C445.033 469 445.851 468.811 446.868 468.442L451.155 466.771L450.545 464.911C449.723 465.283 448.909 465.468 447.686 465.468C446.257 465.468 444.624 464.54 444.624 460.638V447.087H449.723C450.746 446.715 450.747 444.858 450.137 444.301H444.624V437.244L443.804 436.871L437.684 440.957V444.303H435.435L433.802 446.344L434.21 447.089H437.684L437.682 462.312ZM457.484 462.684C457.484 466.026 457.283 466.216 453.807 466.584V468.444H469.119V466.584C465.035 466.216 464.629 466.026 464.629 462.499V452.656C465.648 450.24 466.873 449.499 467.892 449.499C468.914 449.499 469.527 449.871 470.548 450.612C470.956 450.985 471.569 450.985 472.183 450.8C473.61 450.244 475.04 448.943 475.04 447.089C475.04 445.229 473.403 443.747 471.364 443.747C469.119 443.747 466.873 445.603 464.629 449.129V443.556C461.565 444.673 458.093 445.229 454.215 445.786V447.272C457.482 447.83 457.482 448.017 457.482 451.172L457.484 462.684ZM364.799 443.93C361.538 444.673 358.269 446.344 356.431 447.458C355.203 448.386 354.594 449.129 354.594 450.055C354.594 451.543 356.84 452.656 358.269 452.656C359.29 452.656 360.105 452.1 360.515 451.172C360.923 449.312 361.331 448.015 361.944 447.272C362.554 446.715 363.37 446.344 364.391 446.344C364.594 446.344 364.594 446.344 364.799 446.344V443.93ZM364.799 454.142C362.554 454.885 359.898 455.627 358.47 456.372C355.406 457.484 353.977 459.342 353.977 462.128C353.977 465.469 357.045 468.998 361.737 468.998C362.554 468.998 363.575 468.627 364.799 467.883V464.911C363.165 464.911 361.327 463.425 361.327 461.013C361.327 458.968 362.145 457.856 363.778 456.926C364.186 456.737 364.391 456.553 364.796 456.368L364.794 454.14L364.799 454.142ZM314.171 467.883V464.911C315.401 464.911 316.621 464.355 317.645 463.61V454.882C316.827 455.255 315.198 455.996 314.171 456.368V454.137C315.6 453.58 317.03 453.024 317.645 452.466V451.166C317.645 448.194 316.008 446.71 314.171 446.338V443.924C314.583 443.737 315.192 443.737 315.6 443.737C318.258 443.737 320.506 444.479 322.132 445.593C323.972 447.079 324.583 449.122 324.583 451.349V461.562C324.583 463.976 325.194 464.719 326.218 464.719C326.827 464.719 327.444 464.532 328.055 464.347L328.871 466.209L322.542 468.992C321.316 468.992 320.092 468.621 319.478 467.878C318.662 467.133 318.049 466.392 317.844 465.835C316.826 466.584 315.401 467.327 314.171 467.883ZM334.181 462.684C334.181 466.026 333.773 466.216 330.508 466.584V468.444H345.617V466.584C341.53 466.216 341.121 466.026 341.121 462.499V452.656C342.143 450.24 343.369 449.499 344.387 449.499C345.41 449.499 346.023 449.871 347.04 450.612C347.45 450.985 348.064 450.985 348.675 450.8C350.104 450.244 351.534 448.943 351.534 447.089C351.534 445.229 349.899 443.747 347.859 443.747C345.617 443.747 343.369 445.603 341.121 449.129V443.556C338.056 444.673 334.587 445.229 330.709 445.786V447.272C333.976 447.83 334.181 448.017 334.181 451.172V462.684ZM314.171 443.93C310.907 444.673 307.433 446.344 305.803 447.458C304.375 448.386 303.766 449.129 303.766 450.055C303.766 451.543 306.01 452.656 307.437 452.656C308.664 452.656 309.474 452.1 309.685 451.172C310.093 449.312 310.704 448.015 311.319 447.272C311.931 446.715 312.747 446.344 313.565 446.344C313.768 446.344 313.973 446.344 314.176 446.344V443.93H314.171ZM314.171 454.142C311.929 454.885 309.271 455.627 307.64 456.372C304.783 457.484 303.356 459.342 303.356 462.128C303.356 465.469 306.418 468.998 311.114 468.998C311.931 468.998 312.948 468.627 314.176 467.883V464.911C312.339 464.911 310.704 463.425 310.704 461.013C310.704 458.968 311.523 457.856 313.155 456.926C313.354 456.737 313.766 456.553 314.171 456.368V454.142ZM255.178 467.883V464.911C256.404 464.911 257.625 464.355 258.648 463.61V454.882C257.83 455.255 256.404 455.996 255.178 456.368V454.137C256.811 453.58 258.033 453.024 258.648 452.466V451.166C258.648 448.194 257.012 446.71 255.178 446.338V443.924C255.582 443.737 256.196 443.737 256.604 443.737C259.261 443.737 261.505 444.479 263.134 445.593C264.972 447.079 265.583 449.122 265.583 451.349V461.562C265.583 463.976 266.405 464.719 267.219 464.719C268.034 464.719 268.649 464.532 269.057 464.347L269.869 466.209L263.54 468.992C262.316 468.992 261.298 468.621 260.48 467.878C259.664 467.133 259.051 466.392 258.846 465.835C257.83 466.584 256.404 467.327 255.178 467.883ZM274.571 462.684C274.571 466.026 274.159 466.216 270.892 466.584L270.691 468.444H284.164V466.584C281.918 466.216 281.51 466.026 281.51 462.684V449.684C282.736 448.202 284.572 447.643 286.204 447.643C288.448 447.643 290.286 449.314 290.286 453.028V462.684C290.286 466.026 290.087 466.216 287.431 466.584V468.444H300.698V466.584C297.636 466.216 297.433 466.026 297.433 462.684V452.1C297.433 446.715 294.578 443.745 289.265 443.745C286.206 443.745 283.351 445.414 281.51 447.087V430C278.243 430.745 274.365 431.486 271.097 431.86V433.531C274.571 433.9 274.571 433.9 274.571 437.057V462.684ZM255.178 443.93C251.911 444.673 248.644 446.344 246.806 447.458C245.377 448.386 244.766 449.129 244.766 450.055C244.766 451.543 247.013 452.656 248.441 452.656C249.667 452.656 250.482 452.1 250.689 451.172C251.097 449.312 251.708 448.015 252.325 447.272C252.934 446.715 253.751 446.344 254.772 446.344C254.772 446.344 254.973 446.344 255.18 446.344L255.178 443.93ZM255.178 454.142C252.929 454.885 250.277 455.627 248.644 456.372C245.789 457.484 244.359 459.342 244.359 462.128C244.359 465.469 247.421 468.998 252.116 468.998C252.934 468.998 253.954 468.627 255.178 467.883V464.911C253.542 464.911 251.708 463.425 251.708 461.013C251.708 458.968 252.526 457.856 254.157 456.926C254.362 456.737 254.766 456.553 255.178 456.368V454.142ZM149.431 469V466.582C149.636 466.771 149.841 466.771 150.046 466.771C152.29 466.771 154.739 465.1 154.739 457.484C154.739 450.798 152.901 446.342 149.429 445.972V443.745H149.634C157.594 443.745 162.291 449.501 162.291 455.815C162.294 464.726 155.963 469 149.431 469ZM168.825 462.684C168.825 465.841 168.417 466.216 165.56 466.584V468.444H180.461V466.584C176.376 466.216 175.767 465.841 175.767 462.684V447.087H181.278C182.094 446.529 182.301 445.043 182.094 444.301H175.767V442.998C175.562 437.985 175.767 435.758 175.968 434.83C176.173 433.9 176.788 433.346 178.007 433.346C179.436 433.346 181.682 434.643 182.701 435.76C183.313 436.129 183.928 436.129 184.742 435.76C185.353 435.203 185.968 434.643 186.379 433.9C186.58 433.344 186.58 432.599 185.969 432.043C184.949 430.928 183.313 430 180.659 430C178.208 430.189 176.169 431.115 173.92 432.787C170.86 435.203 169.838 437.802 169.43 439.285C169.018 440.397 168.817 442.074 168.817 443.373V444.303H166.571L164.939 446.344L165.142 447.089H168.815V462.684H168.825ZM198.015 433.531V435.388C202.509 435.76 202.915 436.316 202.509 442.815L201.694 454.142C201.282 458.968 200.874 461.941 200.466 463.614C200.261 465.656 199.242 466.216 196.588 466.586V468.446H209.859V466.586C206.182 466.218 204.958 465.658 204.754 463.429C204.551 461.943 204.551 459.159 204.754 454.702L205.366 440.401H205.567L216.184 467.701H218.225L229.858 439.66H230.061V460.643C230.061 465.843 229.858 466.218 225.57 466.586V468.446H241.899V466.586C237.814 466.218 237.406 465.843 237.203 460.643L236.798 441.148C236.798 436.135 236.998 435.764 241.29 435.392V433.534H229.653L219.446 457.117L209.441 433.534L198.015 433.531ZM149.429 443.745C143.1 443.745 136.367 448.388 136.367 456.928C136.367 462.869 140.858 469 149.431 469V466.582C146.166 466.024 144.329 461.381 144.329 454.88C144.329 448.939 146.369 445.967 148.82 445.967C149.021 445.967 149.226 445.967 149.431 445.967L149.429 443.745ZM45.7271 467.883V464.911C46.9554 464.911 48.1779 464.355 49.1973 463.61V454.882C48.381 455.255 46.9554 455.996 45.7271 456.368V454.137C47.3616 453.58 48.586 453.024 49.1973 452.466V451.166C49.1973 448.194 47.5647 446.71 45.7271 446.338V443.924C46.1391 443.737 46.7465 443.737 47.1566 443.737C49.8104 443.737 52.0562 444.479 53.6906 445.593C55.5282 447.079 56.1376 449.122 56.1376 451.349V461.562C56.1376 463.976 56.9558 464.719 57.774 464.719C58.5883 464.719 59.2015 464.532 59.6077 464.347L60.4279 466.209L54.0969 468.992C52.8744 468.992 51.8511 468.621 51.0349 467.878C50.2167 467.133 49.8085 466.392 49.4023 465.835C48.381 466.584 46.9534 467.327 45.7271 467.883ZM65.7337 462.684C65.7337 466.026 65.3255 466.216 61.8573 466.584V468.444H75.5329V466.584C73.086 466.216 72.6759 466.026 72.6759 462.684V449.871C74.3123 448.569 75.941 447.828 77.3705 447.828C79.8174 447.828 81.2507 449.312 81.2507 452.841V462.682C81.2507 466.024 81.0476 466.214 78.3899 466.582V468.442H91.4561V466.582C88.5991 466.214 88.191 466.024 88.191 462.682V451.355C88.191 446.898 85.7441 443.743 80.6375 443.743C79.0011 443.743 77.5755 444.299 75.941 445.225C74.9197 445.97 73.6991 446.712 72.6759 447.268V443.741C69.8189 444.482 66.3488 445.224 62.6717 445.597V447.268C65.7356 447.826 65.7356 447.826 65.7356 451.168L65.7337 462.684ZM97.377 462.684C97.377 466.026 96.967 466.216 93.2937 466.584V468.444H108.196V466.584C104.725 466.216 104.317 466.026 104.317 462.684V456.556C104.52 456.556 104.727 456.556 104.927 456.556C105.337 456.556 105.95 456.741 106.561 458.041C109.012 461.752 111.465 465.283 113.91 468.44H123.301V466.58C121.057 466.213 120.446 465.652 119.016 464.168C116.769 461.75 112.072 455.253 110.848 453.213C112.685 450.983 113.91 449.869 114.933 448.756C116.565 447.085 117.79 446.527 121.463 445.782V443.926L110.033 444.482V446.34C112.277 446.527 112.277 446.896 111.463 448.198C110.644 449.31 109.215 451.542 107.786 452.654C106.971 453.767 105.95 454.325 104.315 454.51V430.002C101.251 430.747 96.9651 431.488 93.905 431.862V433.532C97.1682 433.902 97.3751 433.902 97.3751 437.059L97.377 462.684ZM16.3333 468.255C20.0066 468.07 23.2736 467.512 25.7225 466.216C28.5814 464.543 30.8252 461.941 30.8252 458.229C30.8252 453.03 26.3318 449.872 20.6197 449.131C24.2911 448.388 28.5814 446.161 28.5814 441.331C28.5814 438.73 27.3531 436.686 25.5155 435.39C23.4748 434.089 20.6178 433.532 16.3314 433.532V435.947C18.9833 436.503 21.026 438.362 21.026 442.078C21.026 445.605 19.3896 447.46 16.3314 448.203V451.176C20.2058 451.917 22.6604 454.333 22.6604 458.603C22.6604 463.616 19.5946 465.845 16.3314 466.218L16.3333 468.255ZM45.7271 443.93C42.4601 444.673 39.1949 446.344 37.3593 447.458C35.9317 448.386 35.3186 449.129 35.3186 450.055C35.3186 451.543 37.5643 452.656 38.9918 452.656C40.2182 452.656 41.0306 452.1 41.2375 451.172C41.6495 449.312 42.2589 448.015 42.8739 447.272C43.4852 446.715 44.3015 446.344 45.3228 446.344C45.3228 446.344 45.5259 446.344 45.729 446.344L45.7271 443.93ZM45.7271 454.142C43.4833 454.885 40.8294 455.627 39.1949 456.372C36.3379 457.484 34.9104 459.342 34.9104 462.128C34.9104 465.469 37.9743 468.998 42.667 468.998C43.4852 468.998 44.5027 468.627 45.7271 467.883V464.911C44.0964 464.911 42.2589 463.425 42.2589 461.013C42.2589 458.968 43.0771 457.856 44.7058 456.926C44.9108 456.737 45.3209 456.553 45.7271 456.368V454.142ZM4.69459 461.384V440.399C4.69459 436.131 4.08333 435.758 0.410066 435.388V433.531H16.1283L16.3314 433.532V435.947C15.9232 435.762 15.312 435.76 14.6969 435.76C13.2694 435.76 12.6581 435.945 12.2481 436.316C11.8399 436.501 11.8399 437.246 11.8399 438.73V448.573H13.2694C14.4938 448.573 15.5132 448.388 16.3314 448.203V451.176C15.5132 450.989 14.2907 450.804 13.0643 450.804H11.8399V461.39C11.8399 464.919 12.4512 466.22 15.312 466.22C15.7221 466.22 16.1264 466.218 16.3314 466.218L16.3333 468.259C15.5151 468.259 14.4938 468.447 13.4725 468.447H0V466.588C4.08141 466.214 4.69459 465.841 4.69459 461.384Z" fill="white"/>
</svg>
