<svg width="902" height="366" viewBox="0 0 902 366" fill="none" xmlns="http://www.w3.org/2000/svg">
<rect width="901.409" height="365.677" fill="#00836C"/>
<path d="M560.636 109.585C560.636 164.533 511.431 209.066 450.692 209.066C389.953 209.066 340.772 164.533 340.772 109.585C340.772 54.6372 389.99 10.1255 450.692 10.1255C511.395 10.1255 560.636 54.6812 560.636 109.585Z" fill="white"/>
<path d="M449.891 184.042C460.235 184.053 470.627 181.516 479.356 176.462C484.637 173.694 489.36 169.97 493.22 165.697C495.794 163.203 497.639 160.259 499.618 157.381C502.896 151.614 505.337 145.396 505.992 138.904C506.951 131.665 506.186 124.239 503.868 117.263C502.168 111.958 499.485 106.937 496.098 102.357C491.436 96.1281 485.414 90.6245 478.215 86.8347C476.588 85.9229 475.204 85.0002 473.565 84.0884C471.149 82.5834 467.252 80.683 464.387 82.7042C461.473 85.2967 461.619 89.3722 461.364 92.8545C461.352 117.483 461.218 142.112 461.279 166.741C461.109 168.806 461.813 171.31 459.47 172.53C457.042 173.859 454.322 174.727 451.494 175.133C449.175 175.737 446.977 174.826 444.707 174.441C442.777 173.837 440.664 173.079 439.256 171.86C437.204 170.223 438.443 167.334 438.103 165.049C438.066 139.86 438.176 114.66 438.054 89.4711C437.653 86.7688 437.326 83.4622 434.533 81.8474C433.246 81.2542 431.802 81.3311 430.478 81.8474C427.31 82.6823 424.627 85.11 421.932 86.549C417.257 89.0317 412.96 92.1185 409.33 95.7875C406.125 98.7206 403.575 102.159 401.232 105.696C397.881 111.211 395.332 117.143 394.178 123.371C393.001 129.116 392.892 135.026 393.887 140.816C395.393 149.626 399.605 158.029 405.724 164.994C411.782 171.969 420.098 177.089 429.07 180.56C435.723 182.779 442.789 184.152 449.903 184.075L449.891 184.042Z" fill="#F58220"/>
<path d="M450.11 68.6652C450.874 68.6433 451.664 68.7421 452.392 68.5664C452.853 68.5444 453.278 68.2259 453.764 68.3027C454.079 68.0721 454.432 67.8304 454.844 67.8194C455.221 67.6107 455.791 67.6876 455.986 67.2372C456.398 67.1054 456.726 66.8966 457.09 66.7099C457.442 66.5561 457.709 66.2155 458.037 66.0068C458.559 65.8091 458.729 65.2708 459.227 65.0402C459.482 64.7545 459.701 64.447 460.028 64.2053C460.344 63.7769 460.672 63.3704 460.866 62.8761C461.194 62.6454 461.242 62.2499 461.473 61.9314C461.643 61.5908 461.874 61.2832 461.959 60.9207C462.129 60.6022 462.286 60.2836 462.238 59.9101C462.42 59.4707 462.286 58.9544 462.639 58.5589C462.614 57.5373 462.687 56.5047 462.602 55.4941C462.238 55.0766 462.42 54.5274 462.238 54.044C462.189 53.6925 462.104 53.319 461.874 53.0444C461.594 52.0557 460.878 51.2428 460.368 50.353C460.125 50.0564 459.992 49.7488 459.628 49.5401C459.288 49.1007 458.766 48.8041 458.499 48.3208C458.001 48.2988 457.758 47.8264 457.37 47.6067C457.102 47.3541 456.678 47.2442 456.386 47.0355C456.034 46.9037 455.852 46.5632 455.403 46.5742C454.771 46.3325 454.164 45.9809 453.472 45.8601C453.096 45.6953 452.768 45.4646 452.319 45.5635C451.821 45.5635 451.336 45.4536 450.838 45.4536C449.976 45.3658 449.114 45.4537 448.264 45.4976C447.742 45.6734 447.123 45.3987 446.662 45.7722C446.115 46.0139 445.496 46.0359 444.974 46.3215C444.634 46.5632 444.161 46.5412 443.894 46.8597C443.432 46.9366 443.117 47.2882 442.68 47.42C442.315 47.6946 441.927 48.0022 441.599 48.2768C441.126 48.2219 441.053 48.7602 440.725 48.9799C440.373 49.1996 440.3 49.584 439.972 49.8038C439.353 50.4299 438.819 51.1549 438.455 51.9349C438.394 52.3084 438.03 52.5281 438.006 52.9126C437.811 53.2751 437.641 53.5826 437.556 53.9671C437.459 54.3626 437.581 54.813 437.265 55.1645C437.314 56.0873 437.059 57.021 437.265 57.9437C437.253 58.4381 437.229 58.9324 437.496 59.3718C437.435 59.976 437.726 60.5253 438.006 61.0526C437.969 61.481 438.382 61.6348 438.443 62.0083C438.588 62.3268 438.685 62.6673 438.94 62.953C439.159 63.5901 439.766 63.9856 440.203 64.4909C440.494 64.7216 440.567 65.128 440.956 65.2818C441.235 65.5565 441.441 65.875 441.854 66.0068C442.097 66.3583 442.595 66.4352 442.874 66.7648C443.311 67.1273 443.991 67.0614 444.331 67.5338C444.634 67.7315 445.108 67.6876 445.399 67.8633C445.715 68.0171 446.115 68.105 446.443 68.2478C446.917 68.2808 447.293 68.5884 447.779 68.5115C448.519 68.7202 449.345 68.5554 450.122 68.6103L450.11 68.6652Z" fill="#F58220"/>
<path d="M477.741 48.0132C479.162 45.19 482.901 43.0369 486.094 45.19C492.407 48.8261 497.178 54.3406 502.641 58.9654C509.768 65.2269 516.251 72.2244 520.694 80.3095C525.32 88.5923 528.051 97.699 528.391 106.992C529.472 116.374 527.723 125.997 524.64 134.961C518.29 151.823 505.154 166.762 487.757 175.298C463.682 187.601 432.494 186.788 409.002 173.738C386.639 161.665 372.131 138.893 370.99 115.429C370.395 104.653 372.277 93.7443 377.06 83.8138C381.686 73.8832 389.395 65.3697 397.99 57.9877C402.859 53.5497 407.363 48.6613 413.154 45.234C415.606 43.5313 419.552 43.8498 420.863 46.5412C423.765 50.7046 425.768 55.8676 425.61 60.9207C424.894 69.2475 416.832 74.3555 410.398 79.3098C402.774 84.9892 397.444 92.7337 393.037 100.665C389.055 108.398 386.955 116.868 387.258 125.546C387.307 144.122 397.432 162.544 414.052 173.551C424.942 180.45 438.139 184.449 451.53 184.053C469.825 183.844 487.344 175.254 498.356 162.204C508.214 150.702 513.228 135.894 512.184 121.35C511.747 112.474 508.687 103.873 504.134 96.172C499.897 89.2514 494.143 83.0118 487.368 78.0356C482.318 73.7733 476.126 69.7638 474.5 63.3814C473.273 58.1305 475.264 52.7478 477.753 48.0242L477.741 48.0132Z" fill="#F58220"/>
<path d="M43.018 334.944C42.9061 330.594 43.144 326.265 43.3819 321.937C43.3399 305.493 43.4659 289.037 43.326 272.603C42.6961 268.33 43.27 263.958 42.7801 259.696C42.5701 256.565 42.6121 253.368 42.4441 250.215C42.0242 249.106 42.2062 247.887 41.8982 246.689C41.1844 245.019 42.5421 244.855 44.3477 245.239C50.4085 245.217 56.3852 245.492 62.4599 245.404C66.4351 245.129 70.5782 245.371 74.5534 245.118C74.6794 247.359 74.1475 249.446 74.1195 251.654C73.7556 255.016 73.5316 258.575 73.5736 262.068C73.3636 264.881 73.3636 267.748 73.3217 270.593C73.2377 278.81 72.9997 287.016 73.0417 295.243C72.9157 303.537 73.1257 311.831 73.1397 320.125C73.4196 325.145 73.2237 330.198 73.4336 335.218C73.5176 339.305 73.6716 343.402 73.9795 347.467C74.1895 349.84 74.5954 352.168 74.5394 354.596C72.2019 354.464 69.7384 354.497 67.5129 354.289C61.998 354.234 56.4412 354.058 50.9264 354.289C48.3369 354.201 45.9714 354.574 43.3539 354.486C41.2404 355.211 41.8703 353.717 41.8703 352.586C42.2062 351.345 42.1502 349.993 42.4161 348.73C42.6821 345.16 42.4861 341.524 42.92 337.976C42.92 336.965 42.906 335.954 42.99 334.955L43.018 334.944Z" fill="white"/>
<path d="M129.422 343.754C135.944 344.292 142.495 344.589 149.2 344.468C157.178 344.523 165.142 343.205 172.071 340.14C177.292 337.833 181.883 334.384 185.102 330.352C187.132 328.177 188.559 325.76 189.875 323.267C192.297 318.202 193.92 312.721 194.452 307.228C195.208 301.868 195.208 296.353 194.802 290.937C194.396 285.884 193.08 280.875 190.743 276.151C188.811 272.669 186.446 269.33 183.045 266.561C180.175 263.958 176.536 261.838 172.603 260.223C170.013 259.355 167.298 258.257 164.429 257.806C155.218 255.752 145.49 256.048 136 256.433C133.789 256.499 131.605 256.664 129.422 256.741C128.988 279.051 129.156 301.395 129.128 323.717C129.422 330.385 129.142 337.086 129.422 343.754ZM99.0483 336.042C99.3562 325.584 99.4122 315.105 99.3562 304.625C99.7901 298.297 99.1323 291.948 99.3562 285.599C99.4542 275.844 98.9503 266.144 98.8523 256.433C98.3484 253.764 98.7403 250.951 98.3204 248.293C98.4044 247.436 96.7248 244.514 99.0483 245.272C103.135 245.766 107.405 246.206 111.688 246.228C116.461 246.535 121.248 246.623 126.147 246.579C130.15 246.151 134.489 246.25 138.562 245.942C144.749 245.766 150.753 245.283 156.926 245.239C163.673 244.899 170.643 245.195 177.334 246.118C182.163 246.667 186.95 247.843 191.541 249.084C196.328 250.556 200.835 252.511 204.978 254.972C210.353 258.213 215.098 262.2 218.527 266.715C221.998 271.252 224.406 276.294 225.764 281.49C226.953 284.885 227.387 288.389 227.709 291.893C228.185 295.936 228.115 300.077 227.765 304.119C227.303 307.272 227.149 310.513 226.184 313.622C225.498 316.379 224.63 319.136 223.384 321.751C221.229 327.166 217.617 332.176 213.124 336.625C210.269 339.118 207.427 341.667 203.9 343.622C198.259 347.357 191.527 349.884 184.598 351.839C180.203 352.839 175.822 353.926 171.245 354.365C161.139 355.837 150.753 355.662 140.592 355.189C136 355.134 131.535 354.684 126.902 354.695C120.604 354.212 113.983 353.827 107.726 354.486C104.367 354.728 101.064 355.025 97.7745 355.552C97.9425 353.443 98.5444 351.399 98.5164 349.246C98.7123 344.841 98.8803 340.491 99.0203 336.053L99.0483 336.042Z" fill="white"/>
<path d="M275.845 343.578C280.24 343.809 284.579 344.391 289.128 343.963C292.138 343.479 295.245 343.007 297.919 341.809C299.206 341.282 300.368 340.601 301.418 339.898C302.72 339.184 304.035 337.987 305.057 336.833C306.191 335.877 306.807 334.416 307.758 333.252C308.724 331.363 309.424 329.253 309.886 327.21C309.914 325.09 310.376 323.113 310.306 320.993C309.634 319.608 310.306 317.719 309.438 316.324C308.822 314.237 307.982 312.15 306.261 310.414C305.477 309.392 304.637 308.448 303.419 307.756C302.496 306.679 300.704 306.064 299.458 305.207C297.919 304.866 296.715 303.933 295.063 303.823C292.992 303.296 290.808 302.658 288.54 302.79C285.475 302.043 281.934 302.527 278.673 302.384C275.803 301.758 275.453 303.109 275.831 305.042V343.567L275.845 343.578ZM275.845 292.288C280.52 292.288 285.335 292.464 289.716 291.421C291.928 290.86 294.447 290.278 296.477 289.092C298.688 288.092 300.368 286.763 301.978 285.258C303.545 283.599 304.861 281.611 305.617 279.535C306.233 278.293 306.499 276.887 306.667 275.536C306.989 273.262 307.325 270.944 306.667 268.758C306.527 267.154 306.093 265.649 305.071 264.298C304.007 262.266 302.23 260.783 300.13 259.377C298.352 258.136 296.197 257.575 294.013 256.741C288.582 255.532 282.592 255.148 276.965 255.873C274.781 255.807 276.293 258.333 275.845 259.476V292.288ZM246.199 334.944C246.297 328.045 246.339 321.124 246.451 314.226C246.675 304.746 246.479 295.232 246.549 285.741C246.185 281.237 246.465 276.668 246.283 272.142C246.227 266.572 246.143 261.036 245.821 255.51C245.584 253.061 245.612 250.699 245.206 248.392C245.416 247.359 244.478 245.635 245.374 245.118C251.392 245.239 257.439 245.294 263.444 245.404C270.372 245.074 277.441 245.404 284.411 245.184C291.382 245.184 298.492 244.789 305.351 245.668C308.038 246.041 310.81 246.239 313.329 247.052C316.493 247.579 319.32 248.688 322.217 249.776C323.813 250.699 325.857 251.38 327.41 252.5C329.86 253.939 332.197 255.84 333.947 258.026C335.571 259.981 336.76 262.134 337.348 264.452C337.95 267.078 338.258 269.857 337.572 272.526C337.278 275.064 336.41 277.612 334.829 279.809C333.471 282.468 331.05 284.753 328.488 286.884C326.151 288.685 323.379 290.102 320.776 291.432C318.214 292.607 315.303 293.497 312.433 294.299C310.922 294.584 309.326 294.892 307.87 295.254C309.606 295.441 311.272 295.914 312.993 296.276C315.205 296.672 317.136 297.638 319.334 298.144C322.539 299.528 325.675 300.813 328.348 302.658C331.581 304.636 334.241 307.173 336.396 309.942C338.44 313.061 340.05 316.533 340.428 320.136C341.197 324.991 340.484 330.132 338.328 334.647C337.138 337.371 335.319 339.854 333.037 342.106C331.301 343.743 329.482 345.413 327.27 346.599C324.611 348.499 321.406 349.829 318.214 351.125C314.295 352.399 310.334 353.333 306.163 353.937C301.012 354.431 295.889 354.761 290.654 354.607C283.6 354.42 276.489 354.552 269.463 354.3C264.704 354.3 260.098 354.168 255.381 354.3C252.302 354.629 248.957 354.442 245.793 354.607C244.142 354.618 245.5 352.421 245.22 351.432C245.486 349.148 245.71 346.885 245.752 344.479C246.115 341.315 246.003 338.118 246.199 334.955V334.944Z" fill="white"/>
<path d="M370.913 334.944C371.375 320.608 371.193 306.262 371.235 291.904C371.263 281.161 371.221 270.395 370.787 259.685C370.451 257.685 370.731 255.466 370.437 253.445C370.521 251.578 370.059 249.875 370.059 248.073C369.807 247.151 369.751 245.964 369.821 245.118C373.475 245.272 377.17 245.305 380.879 245.272C384.098 245.58 387.682 245.316 391.041 245.404C394.428 245.085 397.997 245.404 401.399 245.14C403.456 244.767 401.903 246.766 402.365 247.7C401.903 249.952 401.973 252.259 401.847 254.642C401.455 257.235 401.833 259.97 401.525 262.585C401.063 265.012 401.539 267.66 401.259 270.164C401.175 275.976 401.007 281.776 400.937 287.587C400.965 300.956 400.797 314.336 401.259 327.683C401.385 330.78 401.217 333.933 401.441 337.009C401.903 340.019 401.441 343.227 401.917 346.248C401.749 348.906 402.406 351.323 402.406 353.915C402.826 355.288 399.929 354.157 398.823 354.442C396.388 354.333 393.98 354.212 391.475 354.278C388.06 354.025 384.504 354.245 381.033 354.168C379.045 354.453 376.596 354.091 374.678 354.431C372.999 354.343 371.095 354.695 369.723 354.475C369.891 352.575 370.003 350.74 370.297 348.939C370.451 345.995 370.703 343.117 370.619 340.129C370.941 338.503 370.899 336.657 370.899 334.944H370.913Z" fill="white"/>
<path d="M490.896 346.885C494.129 346.929 497.321 346.665 500.456 346.357C501.884 345.841 503.717 346.05 505.145 345.38C506.573 345.039 507.818 344.424 509.036 343.699C511.038 342.831 512.325 341.293 513.473 339.887C514.061 338.909 514.551 337.965 514.929 336.954C516.077 334.241 515.825 331.209 515.825 328.309C515.643 327.144 515.447 325.925 514.943 324.903C514.747 323.64 513.781 322.651 513.263 321.487C512.185 320.377 511.234 318.993 509.624 318.235C508.714 317.422 507.007 316.884 505.747 316.28C503.549 315.522 501.31 315.127 498.986 314.731C497.111 314.358 494.983 314.424 492.967 314.215C491.596 314.16 489.468 313.666 490.168 315.357C490.168 324.036 490.098 332.736 490.448 341.37C490.56 342.765 490.448 344.303 490.714 345.511C490.756 345.962 490.574 346.577 490.91 346.874L490.896 346.885ZM514.943 291.421C515.097 289.432 514.803 287.345 513.963 285.61C513.459 284.423 512.619 283.303 511.654 282.336C510.744 281.556 509.68 280.853 508.63 280.348C507.412 279.842 506.433 279.304 505.047 279.062C503.577 278.634 501.94 278.414 500.344 278.14C497.405 277.689 494.311 277.711 491.26 277.744C490.77 279.117 490.938 280.754 490.896 282.303C490.434 283.369 490.616 284.72 490.448 285.95C490.154 292.97 490.168 300.044 490.168 307.107C493.065 307.162 495.907 306.954 498.748 306.822C500.526 306.437 502.485 306.547 504.165 305.976C505.817 305.657 507.063 304.987 508.35 304.043C509.12 303.46 509.848 302.823 510.576 302.01C512.227 300.319 512.829 298.275 513.767 296.342C514.075 294.694 514.943 293.101 514.943 291.421ZM506.125 310.018C510.128 310.238 514.201 310.271 518.148 310.798C520.122 310.908 521.801 311.479 523.705 311.754C524.951 312.084 526.224 312.38 527.4 312.82C528.884 313.259 530.228 313.929 531.683 314.489C532.677 315.346 534.035 315.95 534.973 316.785C536.05 317.653 536.82 318.642 537.674 319.663C538.094 320.443 538.668 321.333 539.018 322.168C539.508 323.442 539.956 324.793 540.222 326.134C540.753 329.023 540.683 332.088 540.333 335.021C539.844 336.734 539.494 338.492 538.612 340.085C537.87 341.293 537.422 342.699 536.134 343.611C534.903 345.511 532.677 346.863 530.76 348.302C528.828 349.356 526.784 350.301 524.699 351.048C523.243 351.41 521.969 352.157 520.416 352.245C519.114 352.795 517.574 352.85 516.161 353.223C513.963 353.399 511.794 354.003 509.512 353.97C500.96 354.256 492.352 354.014 483.785 354.102C477.865 354.08 471.804 354.146 465.953 354.069C466.149 352.509 466.373 351.037 466.415 349.422C466.835 347.225 466.499 344.83 466.947 342.644C467.199 335.251 467.059 327.825 467.073 320.399C466.779 317.554 467.087 314.621 466.667 311.776C466.723 306.591 466.471 301.439 466.331 296.276C466.401 292.662 466.149 289.103 466.051 285.522C466.065 280.457 465.925 275.404 465.953 270.34C471.286 270.395 476.619 270.659 481.952 270.659C485.899 270.681 489.804 270.845 493.751 270.9C500.498 271.043 507.342 270.703 513.977 271.592C515.923 271.999 518.078 272.065 519.912 272.757C522.361 273.218 524.797 274.086 526.924 275.097C528.1 275.393 529.164 276.228 530.242 276.734C531.879 277.634 532.915 278.876 534.385 279.93C534.833 280.919 535.826 281.699 536.232 282.731C536.918 283.61 537.198 284.643 537.562 285.555C538.108 287.367 538.22 289.432 538.15 291.421C537.8 292.497 537.954 293.607 537.366 294.606C537.114 295.793 536.358 296.946 535.575 298.045C534.861 299.363 533.713 300.385 532.565 301.461C531.977 302.186 530.913 302.669 530.214 303.34C528.884 303.889 527.624 304.866 526.225 305.306C525.133 305.877 523.831 306.492 522.445 306.734C521.354 307.294 520.08 307.569 518.778 307.832C517.042 308.206 515.251 308.744 513.389 308.865C511.024 309.359 508.56 309.502 506.125 309.678V310.062V310.018Z" fill="white"/>
<path d="M604.384 321.707C603.866 320.191 603.376 318.532 602.228 317.159C602.061 316.104 601.207 315.379 601.011 314.347C600.591 313.38 600.241 312.49 599.723 311.567C599.037 309.832 598.225 308.272 597.609 306.602C596.826 305.185 596.336 303.691 595.3 302.428C595.188 301.329 593.984 300.681 594.012 299.517C593.088 298.155 592.431 296.672 591.759 295.276C591.101 294.738 591.003 292.706 590.303 294.266C589.925 295.134 589.337 295.716 588.833 296.529C587.84 298.297 586.86 300.077 585.95 301.944C585.222 302.779 585.222 303.922 584.508 304.68C584.256 305.844 583.444 306.734 583.179 307.942C582.283 309.173 581.723 310.634 581.107 311.864C580.309 313.457 579.455 315.083 578.909 316.763C578.308 317.62 578.028 318.653 577.622 319.587C577.566 320.224 576.096 321.871 578.112 321.487C580.855 321.608 583.696 321.795 586.65 321.696H604.356L604.384 321.707ZM645.633 353.684C640.986 353.607 636.479 353.882 631.846 353.849C627.563 353.97 623.21 354.08 618.871 354.091C618.353 352.817 617.961 351.597 617.485 350.4C617.093 349.312 616.757 348.521 616.394 347.5C615.078 345.16 614.112 342.6 613.258 340.129C612.684 338.327 611.775 336.613 611.187 334.801C610.739 333.658 610.249 332.604 609.759 331.483C609.367 330.835 609.059 329.88 608.401 329.605H572.247C571.547 330.824 570.959 332.252 570.539 333.549C569.083 336.361 567.684 339.283 566.564 342.205C565.206 344.896 564.38 347.818 562.897 350.455C562.449 351.674 561.903 352.882 561.301 354.08C558.012 353.981 554.792 353.794 551.461 353.838C550.607 353.355 547.752 354.113 547.794 353.421C548.032 352.751 548.592 351.872 548.984 351.103C550.173 348.961 551.321 346.566 552.497 344.413C553.575 342.029 555.016 339.645 556.15 337.163C557.676 334.911 558.516 332.439 559.887 330.11C561.217 327.419 562.743 324.826 564.142 322.19C564.856 320.114 566.2 318.126 567.096 316.126C568.188 314.511 568.566 312.71 569.811 311.161C571.001 308.81 571.981 306.196 573.395 303.812C574.626 301.461 575.704 299.066 577.146 296.836C577.986 294.826 578.909 292.882 579.917 290.915C581.597 287.4 583.71 284.017 585.222 280.435C585.936 278.557 587.14 276.766 587.755 274.8C588.889 273.01 589.799 271.087 590.821 269.264C591.367 268.714 592.57 269.516 593.536 269.406C596.28 269.604 599.205 269.406 601.907 269.121C605.126 270.329 605.168 275.767 607.295 278.458C609.185 282.006 611.243 285.511 612.712 289.191C613.972 291.53 614.826 293.991 616.463 296.166C618.087 299.769 619.865 303.296 621.628 306.855C622.146 308.162 623.406 309.206 623.658 310.59C624.61 312.49 625.422 314.434 626.387 316.335C627.451 318.51 628.361 320.696 629.705 322.563C630.922 324.947 632.112 327.452 633.302 329.935C634.072 331.483 634.758 333.197 635.807 334.691C637.613 336.932 638.033 339.579 639.601 341.941C640.245 343.666 641.098 345.292 641.896 346.753C642.372 347.643 642.694 348.466 643.408 349.071C644.066 350.323 644.654 351.751 645.269 352.97C645.269 353.201 645.801 353.355 645.605 353.662L645.633 353.684Z" fill="white"/>
<path d="M749.576 270.318C749.31 272.405 749.058 274.46 748.876 276.547C748.708 279.282 748.386 281.995 748.246 284.731C747.882 289.927 747.742 295.112 747.784 300.341C747.28 304.592 747.672 308.997 747.546 313.314C748.106 318.367 747.546 323.53 748.022 328.594C748.064 333.197 748.554 337.745 748.722 342.315C748.722 345.259 748.932 348.192 749.17 351.092C749.03 352.026 749.422 353.498 749.17 354.091C746.538 353.992 744.355 353.564 741.583 353.684C739.344 353.52 737.65 353.97 735.634 354.091C734.571 353.553 734.067 352.443 732.947 351.839C731.953 351.015 731.253 350.081 730.19 349.4C729.588 348.444 728.328 347.983 727.712 347.071C725.151 344.863 722.519 342.578 720.028 340.25C718.586 339.008 717.144 337.877 715.857 336.591C714.317 335.57 713.463 334.131 711.882 333.098C709.502 331.154 707.29 329.155 705.037 327.133C703.861 326.474 703.217 325.387 702.097 324.728C701.048 323.673 699.648 322.794 698.738 321.586C695.967 319.773 693.895 317.565 691.39 315.445C689.332 314.05 687.625 312.391 685.959 310.798C684.797 309.678 683.131 308.92 682.166 307.679C680.514 306.646 679.45 305.141 677.869 304.01C675.251 302.318 673.166 300.121 670.94 298.144C669.596 297.539 668.785 296.474 667.693 295.661C667.707 308.777 667.609 321.915 667.847 335.01C668.015 340.612 668.337 346.203 668.267 351.828C668.505 352.674 669.092 354.695 667.301 354.036C665.019 353.673 662.724 353.618 660.092 353.684C658.343 353.871 656.705 353.981 654.857 354.069V270.296C657.671 270.164 659.812 270.582 662.346 270.659C664.096 271.021 666.419 271.01 668.267 270.769C669.68 270.637 670.926 270.56 672.34 270.296C674.173 272.23 676.371 273.899 678.47 275.635C682.166 279.216 686.309 282.501 690.116 286.005C693.321 288.345 695.743 291.245 698.948 293.607C701.65 296.133 704.729 298.407 707.416 300.923C710.272 303.669 713.617 306.075 716.431 308.843C719.804 311.337 722.463 314.336 725.809 316.862C729.112 319.905 732.583 322.794 735.956 325.793C737.524 327.924 736.782 324.826 736.908 323.849C736.754 317.005 736.88 310.161 736.572 303.329C736.278 294.903 736.642 286.444 736.194 278.03C735.998 275.558 736.166 273.064 736.11 270.582C738.308 270.955 740.743 271.164 743.515 271.076C745.782 270.988 747.616 270.878 749.618 270.307L749.576 270.318Z" fill="white"/>
<path d="M859.704 354.091H829.975C828.029 351.883 826.251 349.675 824.446 347.423C822.528 345.16 820.667 342.864 818.749 340.612C817.503 339.151 816.383 337.536 814.942 336.152C813.892 334.515 812.198 333.142 811.261 331.494C809.721 329.946 808.419 328.276 806.936 326.628C806.012 325.65 805.06 324.53 804.178 323.453C803.058 322.3 802.163 320.949 800.889 319.817C800.161 318.763 798.985 317.818 798.201 316.785C798.201 326.243 798.131 335.713 798.285 345.149C798.943 346.709 798.145 348.642 798.775 350.235C798.901 351.509 799.027 352.849 799.321 354.102C796.83 354.091 794.548 353.816 792.057 353.86C789.677 353.542 787.102 353.783 784.61 353.695C782.525 353.695 780.425 353.673 778.34 353.717C776.912 354.014 775.134 354.025 773.427 354.102C773.427 347.093 773.371 340.085 773.566 333.109C773.706 327.067 773.706 321.004 773.832 314.962C774.336 311.216 773.902 307.393 774.238 303.625C774.308 294.54 774.462 285.423 774.042 276.371C773.455 274.987 773.874 273.306 773.566 271.834C773.105 270.549 773.651 270.077 775.204 270.516C778.368 270.911 781.685 271.098 784.96 271.252C787.997 271.571 791.161 271.109 794.282 271.098C796.018 270.9 797.865 270.889 799.573 270.604C799.265 272.669 798.929 274.734 798.999 276.942C798.565 277.997 798.859 279.238 798.565 280.337C798.453 283.16 798.705 286.071 798.369 288.839C798.103 295.43 798.229 302.12 798.201 308.755C799.223 307.591 800.483 306.767 801.687 305.668C803.324 304.119 804.892 302.549 806.628 301.099C808.643 299.132 811.023 297.243 812.87 295.101C814.62 293.903 815.726 292.365 817.335 291.069C818.609 289.729 820.107 288.433 821.45 287.125C822.836 285.62 824.516 284.258 825.818 282.709C827.147 281.589 828.197 280.37 829.387 279.161C830.339 278.107 831.584 277.151 832.424 275.987C833.348 275.316 834.132 274.339 834.832 273.515C836.049 272.68 836.637 271.175 837.995 270.593C840.388 270.999 843.384 270.911 845.931 271.087C849.109 271.032 852.79 271.296 855.477 270.681C857.871 270.153 855.841 271.527 854.931 272.197C852.86 274.163 850.676 276.008 848.465 277.887C846.575 279.293 844.965 280.908 843.132 282.358C840.878 284.456 838.359 286.433 836.119 288.455C833.572 290.421 831.36 292.695 828.799 294.661C825.734 297.199 822.822 299.813 819.729 302.34C818.595 303.438 817.153 304.317 816.104 305.471C818.133 308.107 820.681 310.491 822.822 313.094C827.035 317.576 830.829 322.267 835.056 326.727C836.245 328.056 837.477 329.352 838.667 330.682C839.969 332.154 841.312 333.604 842.754 335.021C844.84 337.657 847.289 340.085 849.375 342.732C851.362 344.556 852.86 346.654 854.721 348.587C856.429 350.4 857.955 352.278 859.704 354.08V354.091Z" fill="white"/>
</svg>
