<svg width="83" height="61" viewBox="0 0 83 61" fill="none" xmlns="http://www.w3.org/2000/svg">
<path d="M50.9115 7.35866C54.2717 9.81237 56.7864 13.302 57.4434 17.3583C58.0114 22.1342 56.8919 26.2532 53.8217 30.0655C51.2721 32.9097 47.3943 35.095 43.4471 35.429C38.653 35.6285 34.4824 34.6863 30.7713 31.6453C27.9826 29.1548 25.7333 25.8375 25.4448 22.0953C25.3583 19.2251 25.3808 16.7399 26.5757 14.0757C26.6754 13.8493 26.775 13.6228 26.8777 13.3895C28.6356 9.73539 31.9661 6.85793 35.8857 5.43296C40.9659 3.75105 46.4671 4.49643 50.9115 7.35866ZM37.4043 11.262C36.9094 12.218 36.3703 13.148 35.831 14.0815C35.4675 14.7116 35.1079 15.3434 34.7526 15.9778C34.6556 16.1504 34.5587 16.3231 34.4589 16.501C34.1969 17.0022 33.9795 17.5241 33.7624 18.0446C36.3496 18.0446 38.9368 18.0446 41.6024 18.0446C41.3868 18.5272 41.1712 19.0097 40.949 19.5069C40.8835 19.717 40.8179 19.9271 40.7503 20.1436C40.4135 20.9318 40.1453 21.2919 39.4246 21.8046C37.6001 22.2384 35.6398 22.087 33.776 22.0527C33.2478 22.0512 32.7197 22.0508 32.1916 22.0515C30.9 22.0508 29.6092 22.0372 28.3179 22.0135C29.3118 20.0682 30.3318 18.157 31.4893 16.2952C31.7512 15.8693 32.0129 15.4434 32.2745 15.0174C32.4768 14.6887 32.4768 14.6887 32.6831 14.3534C33.4408 13.1162 34.1865 11.8725 34.9329 10.6291C35.0782 10.3872 35.2236 10.1453 35.3689 9.90337C35.7047 9.3446 36.0402 8.78576 36.3757 8.22685C36.232 8.15792 36.0882 8.08899 35.9401 8.01796C34.297 8.60898 33.0473 9.80096 31.8024 10.9424C31.6092 11.1061 31.4161 11.2698 31.2171 11.4385C28.3946 14.5116 27.641 18.0511 27.8824 22.0135C28.3418 25.5186 30.6712 28.6238 33.5157 30.7632C34.2765 31.2555 35.0449 31.6614 35.8721 32.0402C36.0039 32.101 36.1357 32.1617 36.2715 32.2243C37.2587 32.6477 38.1423 32.7857 39.2068 32.8757C40.3893 30.8624 41.5684 28.8472 42.7457 26.831C42.9384 26.5011 42.9384 26.5011 43.135 26.1644C43.3808 25.7433 43.6264 25.322 43.8716 24.9005C44.0959 24.5163 44.3219 24.133 44.5496 23.7506C44.6494 23.5821 44.7492 23.4136 44.852 23.2399C44.9837 23.0196 44.9837 23.0196 45.1181 22.7948C45.3366 22.4363 45.3366 22.4363 45.3046 22.0135C44.011 21.9446 42.7174 21.8757 41.3846 21.8046C42.1289 20.3155 42.1289 20.3155 42.4735 19.7157C42.5338 19.593 42.594 19.4704 42.6562 19.3439C42.918 18.8954 43.1534 18.5888 43.5624 18.2535C44.4052 18.0353 45.2295 18.0541 46.0983 18.065C46.3433 18.0625 46.5882 18.0599 46.8407 18.0572C47.6218 18.0506 48.4026 18.054 49.1837 18.0577C49.7139 18.0549 50.244 18.0516 50.7741 18.0475C52.0725 18.0389 53.3706 18.0386 54.669 18.0446C54.5959 18.1844 54.5229 18.3241 54.4476 18.4681C54.3024 18.746 54.3024 18.746 54.1544 19.0295C54.0588 19.2123 53.9633 19.3951 53.8649 19.5835C53.6814 19.9379 53.5017 20.2941 53.3266 20.6524C53.0377 21.2152 52.8383 21.4763 52.2735 21.8046C51.8273 21.7827 51.3809 21.7587 50.9365 21.7153C50.0011 21.6403 49.214 21.6147 48.3535 22.0135C47.2016 23.2308 46.5498 24.8242 45.8537 26.3088C45.2295 27.6349 44.4776 28.8798 43.7121 30.1341C43.4758 30.5245 43.2406 30.9156 43.0069 31.3074C42.9088 31.4698 42.8107 31.6321 42.7097 31.7994C42.4838 32.2295 42.3547 32.6142 42.2557 33.0846C45.1642 33.3441 48.004 31.7753 50.2318 30.1341C52.8662 27.9785 54.8665 24.8851 55.1454 21.5217C55.1626 21.0234 55.1641 20.5276 55.159 20.0291C55.1607 19.864 55.1624 19.6989 55.1641 19.5289C55.1533 16.362 53.6925 13.4193 51.5342 11.0534C49.7324 9.37433 47.688 8.16346 45.3046 7.3913C44.9003 7.25559 44.9003 7.25559 44.4879 7.11713C44.1799 7.06626 43.8713 7.01899 43.5624 6.97352C43.3069 6.90755 43.0514 6.84158 42.7882 6.77361C39.522 6.14949 38.6483 8.82332 37.4043 11.262Z" fill="white"/>
<path d="M0.982244 53.4545L2.67259 43.2726H4.20881L2.73722 52.132H7.35085L7.1321 53.4545H0.982244ZM11.7085 53.5986C11.0257 53.5986 10.4589 53.4744 10.0082 53.2258C9.55741 52.9772 9.23426 52.6391 9.03871 52.2116C8.84647 51.7807 8.79676 51.2935 8.88956 50.7499C8.95253 50.3323 9.09671 49.9628 9.32209 49.6413C9.55078 49.3198 9.84245 49.0215 10.1971 48.7464C10.555 48.4713 10.9577 48.1945 11.4052 47.9161L13.2347 46.7577C13.5397 46.5754 13.7866 46.3832 13.9755 46.181C14.1644 45.9755 14.2854 45.722 14.3384 45.4204C14.3749 45.1817 14.3086 44.953 14.1396 44.7343C13.9705 44.5155 13.712 44.4062 13.364 44.4062C13.1287 44.4062 12.9099 44.4642 12.7077 44.5802C12.5089 44.6962 12.3432 44.8453 12.2106 45.0276C12.0813 45.2066 12.0001 45.3955 11.967 45.5944C11.9305 45.8264 11.957 46.0601 12.0465 46.2954C12.136 46.5274 12.262 46.7693 12.4244 47.0212C12.5901 47.2698 12.7608 47.53 12.9364 47.8018L16.7198 53.4545H15.0394L11.8924 48.8557C11.6306 48.468 11.3886 48.1034 11.1665 47.762C10.9445 47.4173 10.7754 47.0693 10.6594 46.718C10.5434 46.3633 10.5186 45.9805 10.5849 45.5695C10.6611 45.1022 10.8351 44.6879 11.1069 44.3266C11.3787 43.962 11.7234 43.677 12.141 43.4715C12.5619 43.266 13.0309 43.1633 13.5479 43.1633C14.0716 43.1633 14.5058 43.266 14.8505 43.4715C15.1952 43.6737 15.4405 43.9438 15.5863 44.2819C15.7354 44.6166 15.7752 44.9829 15.7056 45.3806C15.6261 45.8645 15.4338 46.2904 15.1289 46.6583C14.8273 47.0262 14.4412 47.3659 13.9705 47.6775L11.6836 49.1839C11.2362 49.4789 10.9113 49.7689 10.7092 50.0539C10.507 50.3356 10.3943 50.5544 10.3711 50.7101C10.3247 51.0018 10.3562 51.2719 10.4656 51.5205C10.5749 51.7691 10.7539 51.968 11.0025 52.1171C11.2544 52.2663 11.5643 52.3408 11.9322 52.3408C12.3067 52.3408 12.6862 52.2596 13.0707 52.0972C13.4585 51.9315 13.823 51.6945 14.1644 51.3863C14.5091 51.078 14.8024 50.7085 15.0444 50.2776C15.2897 49.8467 15.4554 49.3645 15.5415 48.8309H16.8839C16.7745 49.4871 16.6104 50.039 16.3917 50.4864C16.1763 50.9339 15.9426 51.3001 15.6907 51.5851C15.4421 51.8669 15.2118 52.0923 14.9996 52.2613C14.93 52.3143 14.8588 52.3673 14.7859 52.4204C14.713 52.4734 14.6417 52.5264 14.5721 52.5795C14.171 52.9242 13.712 53.181 13.195 53.3501C12.6779 53.5158 12.1824 53.5986 11.7085 53.5986ZM18.1802 44.5951L18.399 43.2726H26.2789L26.0602 44.5951H22.8833L21.4118 53.4545H19.8805L21.3521 44.5951H18.1802ZM30.035 53.4545L31.7253 43.2726H38.0392L37.8205 44.5951H33.0428L32.5257 47.6974H36.851L36.6323 49.0148H32.307L31.5712 53.4545H30.035ZM38.1188 53.4545L39.3915 45.8181H40.878L39.6053 53.4545H38.1188ZM40.4455 44.6249C40.187 44.6249 39.9682 44.5387 39.7892 44.3664C39.6136 44.1907 39.5324 43.9819 39.5456 43.74C39.5589 43.4947 39.6616 43.2859 39.8539 43.1136C40.0461 42.9379 40.2698 42.8501 40.525 42.8501C40.7836 42.8501 41.0007 42.9379 41.1763 43.1136C41.352 43.2859 41.4348 43.4947 41.4249 43.74C41.4116 43.9819 41.3089 44.1907 41.1167 44.3664C40.9277 44.5387 40.704 44.6249 40.4455 44.6249ZM43.8423 48.9204L43.0966 53.4545H41.6101L42.8828 45.8181H44.3097L44.1009 47.061H44.1953C44.4373 46.6533 44.767 46.3285 45.1847 46.0866C45.6056 45.8413 46.1027 45.7187 46.6761 45.7187C47.1932 45.7187 47.6274 45.828 47.9787 46.0468C48.3333 46.2622 48.5836 46.5837 48.7294 47.0113C48.8786 47.4388 48.9018 47.9675 48.799 48.5972L47.9837 53.4545H46.4972L47.2777 48.7762C47.3672 48.2227 47.2943 47.7902 47.0589 47.4786C46.8269 47.1637 46.4574 47.0063 45.9503 47.0063C45.6056 47.0063 45.2857 47.0809 44.9908 47.23C44.6991 47.3792 44.4522 47.5979 44.25 47.8863C44.0511 48.1713 43.9152 48.516 43.8423 48.9204ZM52.1747 53.6235C51.6908 53.6235 51.2682 53.534 50.907 53.355C50.5457 53.1727 50.2789 52.9092 50.1065 52.5646C49.9342 52.2199 49.8894 51.7973 49.9723 51.2968C50.0452 50.8659 50.1877 50.5113 50.3999 50.2329C50.6153 49.9545 50.8771 49.7341 51.1854 49.5717C51.4936 49.4059 51.8284 49.2816 52.1896 49.1988C52.5509 49.1159 52.9155 49.0546 53.2834 49.0148C53.7474 48.9618 54.1236 48.9171 54.4119 48.8806C54.7036 48.8441 54.9223 48.7878 55.0682 48.7116C55.214 48.632 55.3018 48.5028 55.3317 48.3238V48.289C55.4013 47.8581 55.3383 47.5234 55.1428 47.2847C54.9505 47.0428 54.6158 46.9218 54.1385 46.9218C53.6413 46.9218 53.2237 47.0312 52.8857 47.2499C52.5509 47.4687 52.304 47.7139 52.1449 47.9857L50.8125 47.6675C51.0511 47.2035 51.3544 46.829 51.7223 46.544C52.0935 46.2556 52.4995 46.0468 52.9403 45.9175C53.3812 45.785 53.8319 45.7187 54.2926 45.7187C54.5975 45.7187 54.9141 45.7551 55.2422 45.828C55.5703 45.8976 55.8686 46.0269 56.1371 46.2158C56.4089 46.4048 56.611 46.6749 56.7436 47.0262C56.8762 47.3742 56.8961 47.8266 56.8033 48.3834L55.9631 53.4545H54.5114L54.6903 52.4104H54.6307C54.5047 52.6027 54.3291 52.7916 54.1037 52.9772C53.8816 53.1628 53.6098 53.3169 53.2884 53.4396C52.9669 53.5622 52.5956 53.6235 52.1747 53.6235ZM52.6818 52.4303C53.0961 52.4303 53.4624 52.3491 53.7805 52.1867C54.102 52.0243 54.3622 51.8122 54.5611 51.5503C54.7599 51.2852 54.8842 51.0018 54.9339 50.7002L55.098 49.7158C55.035 49.7689 54.924 49.8169 54.7649 49.86C54.6091 49.9031 54.4335 49.9412 54.2379 49.9744C54.0424 50.0075 53.8501 50.0357 53.6612 50.0589C53.4756 50.0821 53.3215 50.1036 53.1989 50.1235C52.9072 50.16 52.6338 50.2213 52.3786 50.3075C52.1267 50.3936 51.9162 50.5179 51.7472 50.6803C51.5781 50.8394 51.4721 51.0515 51.429 51.3167C51.3693 51.6846 51.4571 51.963 51.6925 52.1519C51.9311 52.3375 52.2609 52.4303 52.6818 52.4303ZM60.1802 48.9204L59.4345 53.4545H57.948L59.2207 45.8181H60.6475L60.4387 47.061H60.5332C60.7752 46.6533 61.1049 46.3285 61.5225 46.0866C61.9435 45.8413 62.4406 45.7187 63.014 45.7187C63.5311 45.7187 63.9653 45.828 64.3166 46.0468C64.6712 46.2622 64.9215 46.5837 65.0673 47.0113C65.2164 47.4388 65.2396 47.9675 65.1369 48.5972L64.3216 53.4545H62.835L63.6156 48.7762C63.7051 48.2227 63.6322 47.7902 63.3968 47.4786C63.1648 47.1637 62.7953 47.0063 62.2882 47.0063C61.9435 47.0063 61.6236 47.0809 61.3287 47.23C61.037 47.3792 60.7901 47.5979 60.5879 47.8863C60.389 48.1713 60.2531 48.516 60.1802 48.9204ZM69.5069 53.6086C68.7645 53.6086 68.1563 53.4412 67.6824 53.1065C67.2084 52.7684 66.8786 52.3027 66.693 51.7094C66.5074 51.1162 66.4776 50.4367 66.6035 49.6711C66.7295 48.8955 66.9863 48.2111 67.3741 47.6178C67.7652 47.0212 68.2541 46.5556 68.8407 46.2208C69.4307 45.886 70.0853 45.7187 70.8045 45.7187C71.3845 45.7187 71.8833 45.8264 72.301 46.0418C72.7186 46.2539 73.0351 46.5522 73.2505 46.9367C73.466 47.3212 73.5588 47.7703 73.5289 48.284H72.0822C72.059 47.9261 71.9264 47.6178 71.6845 47.3593C71.4425 47.1008 71.0862 46.9715 70.6156 46.9715C70.2013 46.9715 69.8201 47.0809 69.4721 47.2996C69.1241 47.5151 68.8308 47.8233 68.5922 48.2244C68.3535 48.6221 68.1911 49.0927 68.1049 49.6363C68.0121 50.1931 68.0171 50.6737 68.1199 51.078C68.2226 51.4824 68.4115 51.7956 68.6866 52.0177C68.9617 52.2397 69.3081 52.3508 69.7257 52.3508C70.0107 52.3508 70.2759 52.2994 70.5211 52.1967C70.7697 52.0906 70.9885 51.9398 71.1774 51.7442C71.3696 51.5487 71.5188 51.3134 71.6248 51.0383H73.0765C72.934 51.5321 72.6954 51.9729 72.3606 52.3607C72.0292 52.7485 71.6215 53.0534 71.1376 53.2755C70.6537 53.4976 70.1101 53.6086 69.5069 53.6086ZM77.5249 53.6086C76.7758 53.6086 76.156 53.4478 75.6655 53.1263C75.1783 52.8015 74.8369 52.3458 74.6413 51.7592C74.4458 51.1692 74.4143 50.4781 74.5469 49.686C74.6761 48.9038 74.9363 48.2144 75.3274 47.6178C75.7185 47.0212 76.2057 46.5556 76.7891 46.2208C77.3757 45.886 78.0237 45.7187 78.733 45.7187C79.1638 45.7187 79.5698 45.7899 79.951 45.9325C80.3355 46.075 80.6619 46.2987 80.9304 46.6036C81.1989 46.9085 81.3845 47.3046 81.4872 47.7918C81.5933 48.2757 81.59 48.864 81.4773 49.5567L81.3928 50.0837H75.3175L75.4915 48.9701H80.1051C80.1747 48.579 80.1565 48.2326 80.0504 47.931C79.9444 47.6261 79.7621 47.3858 79.5036 47.2101C79.2483 47.0345 78.9268 46.9467 78.5391 46.9467C78.1413 46.9467 77.7701 47.0511 77.4254 47.2599C77.0807 47.4687 76.7924 47.7355 76.5604 48.0603C76.3317 48.3818 76.1875 48.7132 76.1278 49.0546L75.9538 50.0738C75.8677 50.6306 75.8826 51.078 75.9986 51.4161C76.1179 51.7542 76.3267 51.9994 76.625 52.1519C76.9233 52.3044 77.2962 52.3806 77.7436 52.3806C78.032 52.3806 78.2988 52.3408 78.544 52.2613C78.7926 52.1784 79.013 52.0575 79.2053 51.8984C79.3975 51.736 79.5582 51.5338 79.6875 51.2918L81.0497 51.5454C80.8674 51.9597 80.6056 52.3226 80.2642 52.6342C79.9228 52.9424 79.5201 53.1827 79.0561 53.355C78.5954 53.5241 78.085 53.6086 77.5249 53.6086Z" fill="white"/>
</svg>
