<svg width="49" height="37" viewBox="0 0 49 37" fill="none" xmlns="http://www.w3.org/2000/svg">
<path d="M24.5 22C30.5751 22 35.5 17.0751 35.5 11C35.5 4.92487 30.5751 0 24.5 0C18.4249 0 13.5 4.92487 13.5 11C13.5 17.0751 18.4249 22 24.5 22Z" fill="black"/>
<path d="M21.9494 1.32685C22.6764 0.66838 23.6222 0.303711 24.6031 0.303711C25.584 0.303711 26.5299 0.66838 27.2569 1.32685C27.2844 1.35435 27.2775 1.3681 27.2362 1.3681H21.97C21.9219 1.3681 21.915 1.35435 21.9494 1.32685Z" fill="#EB7D26"/>
<path d="M19.3231 1.93176C19.5775 1.75989 19.8731 1.58801 20.1825 1.58801C20.4644 1.59157 20.7463 1.59616 21.0281 1.60176V3.36864C21.0212 3.38239 21.0144 3.38239 21.0075 3.38239H17.7625C17.735 3.38239 17.7281 3.37551 17.7487 3.35489C18.2712 2.77739 18.8006 2.30301 19.33 1.93176H19.3231Z" fill="#53AB46"/>
<path d="M23.95 1.67077C24.6883 1.5409 25.4486 1.63755 26.1308 1.94802C26.8131 2.25848 27.3854 2.76821 27.7725 3.41015C27.7863 3.43077 27.7794 3.43765 27.7656 3.43765H21.4613C21.4568 3.4379 21.4524 3.4367 21.4486 3.43422C21.4449 3.43174 21.4421 3.42811 21.4406 3.4239C21.4388 3.42076 21.4379 3.4172 21.4379 3.41358C21.4379 3.40996 21.4388 3.40641 21.4406 3.40327C21.7121 2.95165 22.0771 2.56337 22.5111 2.26454C22.9452 1.96571 23.4381 1.76325 23.9569 1.67077H23.95Z" fill="#2F90CF"/>
<path d="M29.1887 1.64999C29.5119 1.67749 29.8762 1.94561 30.1444 2.14499C30.6426 2.52879 31.103 2.95929 31.5194 3.43061C31.5186 3.43341 31.5173 3.43602 31.5154 3.43827C31.5136 3.44051 31.5113 3.44234 31.5087 3.44364C31.5061 3.44494 31.5033 3.44567 31.5004 3.4458C31.4975 3.44592 31.4946 3.44543 31.4919 3.44437L28.2469 3.43061H28.24V3.41686L28.2331 1.67062C28.2331 1.65687 28.24 1.64312 28.2606 1.64312C28.6044 1.62937 28.9137 1.63624 29.1887 1.64999Z" fill="#6F3689"/>
<path d="M25.5725 5.67879C25.3161 5.5208 25.0252 5.42757 24.7247 5.40713C24.4243 5.38669 24.1233 5.43966 23.8479 5.56146C23.5725 5.68327 23.3309 5.87025 23.1438 6.10629C22.9568 6.34232 22.83 6.62032 22.7744 6.91629C22.7538 6.99191 22.7538 7.07441 22.7331 7.15004C22.7331 7.17066 22.7194 7.17754 22.7056 7.17754H20.8494C20.8444 7.17638 20.8398 7.17384 20.8361 7.17019C20.8325 7.16654 20.8299 7.16194 20.8288 7.15692V7.15004C20.872 6.17963 21.2883 5.26342 21.9909 4.59265C22.6935 3.92188 23.628 3.5484 24.5994 3.55018C25.5708 3.55195 26.5039 3.92884 27.2041 4.60217C27.9042 5.2755 28.3172 6.19323 28.3569 7.16379C28.3498 7.17175 28.34 7.17667 28.3294 7.17754H26.4938C26.4731 7.17754 26.4663 7.16379 26.4594 7.15004C26.4386 6.85129 26.3466 6.56185 26.1911 6.30591C26.0357 6.04996 25.8212 5.83493 25.5656 5.67879H25.5725Z" fill="#EB7D26"/>
<path d="M17.1988 7.18421C17.2398 6.25379 17.6246 5.37168 18.2787 4.7087C18.9328 4.04572 19.8096 3.64904 20.7394 3.59546C20.7437 3.59866 20.7471 3.60281 20.7495 3.60759C20.7519 3.61236 20.7531 3.61762 20.7531 3.62296V5.45858C20.7531 5.47233 20.7531 5.47921 20.7394 5.49296C20.7323 5.50092 20.7225 5.50584 20.7119 5.50671C20.2866 5.56525 19.8943 5.76779 19.6003 6.08056C19.3063 6.39332 19.1284 6.79741 19.0963 7.22546L19.0756 7.23233H17.24L17.2194 7.22546C17.2142 7.22263 17.2096 7.21871 17.2061 7.21396C17.2025 7.20921 17.2 7.20376 17.1988 7.19796V7.18421Z" fill="#E23727"/>
<path d="M28.1988 3.63013C29.1348 3.66937 30.0228 4.05466 30.691 4.71134C31.3591 5.36802 31.7596 6.24933 31.815 7.1845C31.8122 7.18699 31.809 7.18888 31.8054 7.19006C31.8019 7.19125 31.7981 7.19169 31.7944 7.19138H29.9381C29.9283 7.19151 29.9187 7.18812 29.9112 7.18182C29.9036 7.17551 29.8985 7.16671 29.8969 7.157C29.8401 6.73523 29.6407 6.3456 29.3318 6.05292C29.0228 5.76024 28.623 5.58214 28.1988 5.54825C28.1897 5.54825 28.1809 5.54463 28.1745 5.53818C28.168 5.53174 28.1644 5.52299 28.1644 5.51388L28.1781 3.64388C28.1781 3.637 28.1781 3.63013 28.1988 3.63013Z" fill="#FFCD1A"/>
<path d="M33.6231 5.8644C33.7331 6.0569 33.8431 6.23565 33.85 6.4694C33.85 6.70315 33.8638 6.9369 33.8706 7.1569C33.8706 7.1844 33.8638 7.19815 33.8431 7.19127L32.1175 7.1294H32.0969C32.0969 7.11565 32.0625 7.10877 32.0625 7.1019V4.05627C32.7074 4.5418 33.2397 5.16092 33.6231 5.87128V5.8644Z" fill="#2F90CF"/>
<path d="M15.4525 5.89187C15.811 5.20048 16.3181 4.59707 16.9375 4.125V7.13625C16.9375 7.15687 16.9375 7.16375 16.9169 7.16375L15.2325 7.2325C15.2119 7.2325 15.205 7.21875 15.205 7.19812L15.2394 6.42813C15.2394 6.24938 15.3563 6.06375 15.4456 5.89875L15.4525 5.89187Z" fill="#FFCD1A"/>
<path d="M20.7325 12.8631L20.7462 12.87L20.7531 12.8837V14.7468C20.7531 14.7743 20.7394 14.7881 20.7119 14.7881C19.709 14.7926 18.7454 14.3986 18.0331 13.6927C17.3207 12.9868 16.918 12.0269 16.9134 11.024C16.9089 10.0212 17.3029 9.05759 18.0088 8.34524C18.7147 7.6329 19.6746 7.23014 20.6775 7.22559C20.7256 7.22559 20.7531 7.25309 20.7531 7.30121V9.08871C20.7531 9.10246 20.7531 9.11621 20.7394 9.12309C20.7323 9.13104 20.7225 9.13597 20.7119 9.13684C20.4672 9.13819 20.2252 9.18772 19.9997 9.2826C19.7741 9.37749 19.5695 9.51586 19.3975 9.68982C19.2254 9.86379 19.0893 10.0699 18.9969 10.2965C18.9046 10.5231 18.8577 10.7656 18.8591 11.0103C18.8604 11.2549 18.9099 11.4969 19.0048 11.7225C19.0997 11.948 19.2381 12.1526 19.412 12.3247C19.586 12.4967 19.7922 12.6328 20.0187 12.7252C20.2453 12.8176 20.4878 12.8644 20.7325 12.8631Z" fill="#2F90CF"/>
<path d="M31.9938 10.8625C32.0131 11.3593 31.934 11.8551 31.7611 12.3213C31.5882 12.7875 31.3249 13.215 30.9863 13.5791C30.6478 13.9433 30.2405 14.2369 29.7881 14.4432C29.3357 14.6495 28.847 14.7644 28.35 14.7812C28.3381 14.7745 28.3284 14.7643 28.3223 14.7521C28.3162 14.7398 28.3139 14.726 28.3156 14.7125V14.6093C28.3338 14.0343 28.3406 13.459 28.3363 12.8837C28.3437 12.8762 28.3533 12.8714 28.3638 12.87C28.8375 12.842 29.2827 12.6344 29.6086 12.2894C29.9344 11.9444 30.1164 11.4881 30.1173 11.0135C30.1181 10.539 29.9379 10.0819 29.6133 9.73575C29.2887 9.38955 28.8443 9.18026 28.3706 9.15059C28.3585 9.14747 28.3479 9.14032 28.3404 9.13033C28.3329 9.12033 28.329 9.10808 28.3294 9.09559V7.25309C28.3325 7.2461 28.3373 7.23996 28.3432 7.23518C28.3492 7.23039 28.3563 7.2271 28.3638 7.22559H28.3775C29.1544 7.26684 29.8419 7.50059 30.4538 7.95434C30.9143 8.28885 31.2924 8.72408 31.5593 9.22685C31.8262 9.72963 31.9748 10.2867 31.9938 10.8556V10.8625Z" fill="#53AB46"/>
<path d="M15.205 11.1786C15.1744 10.5181 15.3169 9.86109 15.6184 9.27261C15.9198 8.68414 16.3698 8.18464 16.9237 7.82361L16.9306 7.83048V14.1692C16.9306 14.1899 16.9306 14.1967 16.91 14.183C16.4076 13.8537 15.9909 13.4093 15.6944 12.8869C15.3979 12.3644 15.2301 11.7788 15.205 11.1786Z" fill="#FFCD1A"/>
<path d="M32.1106 7.83752C32.653 8.17359 33.0997 8.64352 33.408 9.20214C33.7163 9.76076 33.8756 10.3893 33.8708 11.0273C33.866 11.6653 33.6971 12.2913 33.3804 12.8452C33.0637 13.3991 32.6099 13.8622 32.0625 14.19V7.86503C32.063 7.86075 32.0645 7.85666 32.0669 7.85308C32.0693 7.84949 32.0725 7.84652 32.0763 7.8444C32.0815 7.84138 32.0874 7.83979 32.0934 7.83979C32.0995 7.83979 32.1054 7.84138 32.1106 7.8444V7.83752Z" fill="#6F3689"/>
<path d="M34.9706 9.70744C35.1956 10.3837 35.2378 11.1075 35.0929 11.8053C34.948 12.5032 34.6212 13.1503 34.1456 13.6812H34.125L34.1181 13.6674V8.33931C34.1181 8.31181 34.125 8.31181 34.1456 8.32556C34.51 8.71744 34.8056 9.21931 34.9637 9.70744H34.9706Z" fill="#FFCD1A"/>
<path d="M14.8131 13.633C14.2242 12.8736 13.9092 11.9375 13.9191 10.9765C13.9291 10.0156 14.2635 9.08623 14.8681 8.33923V8.34611L14.875 8.35986V13.6055C14.875 13.6742 14.8544 13.6742 14.8131 13.633Z" fill="#6F3689"/>
<path d="M23.125 17.6343V13.9906C24.335 14.6781 25.7856 14.4718 26.81 13.53C27.4502 12.9433 27.838 12.1312 27.8919 11.2645C27.9457 10.3977 27.6614 9.5439 27.0987 8.88247C26.5929 8.29387 25.8928 7.90605 25.1256 7.78935C24.2828 7.67467 23.4287 7.89474 22.7462 8.40239C22.0638 8.91003 21.6074 9.66483 21.475 10.505C21.42 10.835 21.4337 11.1718 21.4406 11.5087L21.4543 11.9212V17.6068C21.4542 17.6167 21.4576 17.6263 21.4639 17.6338C21.4702 17.6414 21.479 17.6465 21.4887 17.6481L23.125 17.6343ZM26.2462 11.0618C26.2462 11.9556 25.5381 12.6775 24.665 12.6775C24.2413 12.672 23.8371 12.499 23.5407 12.1962C23.2444 11.8934 23.08 11.4855 23.0837 11.0618C23.0837 10.1681 23.785 9.44622 24.665 9.44622C25.5381 9.44622 26.2462 10.175 26.2462 11.0618Z" fill="#E23727"/>
<path d="M33.85 15.3176C33.85 15.3863 33.8294 15.4551 33.8019 15.5169C33.4086 16.3668 32.811 17.1061 32.0625 17.6688V14.6094C32.0625 14.6003 32.0661 14.5916 32.0726 14.5851C32.079 14.5787 32.0878 14.5751 32.0969 14.5751L33.8431 14.5132C33.8515 14.515 33.8588 14.5199 33.8637 14.5269C33.8707 14.5319 33.8756 14.5392 33.8775 14.5476L33.85 15.3176Z" fill="#FFCD1A"/>
<path d="M15.3425 15.6681C15.2737 15.5306 15.2325 15.4275 15.2256 15.2694C15.2256 15.015 15.2119 14.7813 15.1981 14.5681C15.1981 14.5475 15.1981 14.5406 15.2256 14.5406L16.8344 14.6025C16.8687 14.6025 16.9375 14.6231 16.9375 14.6575V17.6894H16.9306C16.2528 17.1468 15.7094 16.4551 15.3425 15.6681Z" fill="#2F90CF"/>
<path d="M28.2881 14.7124C28.2487 15.6354 27.8721 16.5119 27.2297 17.1758C26.5873 17.8398 25.7237 18.2451 24.8025 18.3149C24.7613 18.3149 24.7406 18.3011 24.7406 18.2599V16.4311C24.7421 16.4189 24.7476 16.4075 24.7564 16.3987C24.7651 16.39 24.7765 16.3845 24.7888 16.383C25.2091 16.3231 25.5964 16.1214 25.8864 15.8113C26.1765 15.5013 26.352 15.1014 26.3838 14.678C26.3838 14.6574 26.3906 14.6505 26.4113 14.6505H28.2331C28.249 14.6518 28.2638 14.6592 28.2744 14.6711C28.2799 14.6778 28.284 14.6855 28.2863 14.6937C28.2887 14.702 28.2893 14.7107 28.2881 14.7193V14.7124Z" fill="#FFCD1A"/>
<path d="M28.3019 16.3899C28.723 16.3302 29.1112 16.1288 29.4024 15.8188C29.6936 15.5089 29.8704 15.1089 29.9038 14.6849C29.9054 14.6752 29.9105 14.6664 29.918 14.6601C29.9256 14.6538 29.9352 14.6504 29.945 14.6505L31.7806 14.6643C31.786 14.6643 31.7912 14.6655 31.796 14.6679C31.8008 14.6703 31.8049 14.6737 31.8081 14.678C31.8151 14.6829 31.82 14.6903 31.8219 14.6986C31.7773 15.6264 31.3947 16.5057 30.7462 17.1707C30.0977 17.8357 29.2282 18.2402 28.3019 18.308C28.2813 18.308 28.2675 18.308 28.2675 18.2805V16.4311L28.2744 16.4036C28.2814 16.3957 28.2913 16.3908 28.3019 16.3899Z" fill="#EB7D26"/>
<path d="M20.815 18.2599C19.8872 18.2294 19.0039 17.8551 18.3369 17.2096C17.6698 16.5641 17.2666 15.6936 17.2056 14.7674C17.2056 14.7261 17.2194 14.6986 17.2744 14.6986H19.0344C19.0825 14.6986 19.11 14.7261 19.1238 14.7811C19.1926 15.1884 19.3934 15.5618 19.6953 15.8438C19.9971 16.1258 20.3833 16.3008 20.7944 16.3417C20.8101 16.3449 20.8243 16.3536 20.8343 16.3661C20.8444 16.3787 20.8497 16.3944 20.8494 16.4105V18.2255L20.8425 18.2461L20.815 18.2599Z" fill="#6F3689"/>
<path d="M19.9625 20.1781C19.6875 20.1781 19.3094 19.8963 19.1031 19.7313C18.6043 19.3303 18.146 18.8813 17.735 18.3906H20.8425C20.8631 18.3906 20.87 18.3975 20.87 18.4181L20.8769 20.1713V20.1781H19.9625Z" fill="#EB7D26"/>
<path d="M28.295 18.4387H31.4919C31.5194 18.4387 31.5263 18.4525 31.5056 18.4731C31.0381 19.0025 30.5431 19.4631 30.0069 19.8481C29.78 20.02 29.45 20.2331 29.1544 20.2331C28.8633 20.2326 28.5723 20.2326 28.2813 20.2331C28.2759 20.2293 28.2718 20.224 28.2694 20.2179C28.2669 20.2118 28.2663 20.2052 28.2675 20.1987L28.2744 18.4662L28.2813 18.4456H28.295V18.4387Z" fill="#E23727"/>
<path d="M22.8844 19.9169C22.3046 19.6164 21.8103 19.1741 21.4475 18.6312C21.42 18.5831 21.4269 18.5625 21.4888 18.5625H27.7381L27.7519 18.5694L27.7656 18.5831C27.768 18.5873 27.7693 18.592 27.7693 18.5969C27.7693 18.6017 27.768 18.6064 27.7656 18.6106C27.2574 19.3933 26.4773 19.9599 25.5758 20.2011C24.6744 20.4423 23.7155 20.3411 22.8844 19.9169Z" fill="#53AB46"/>
<path d="M27.2637 20.6525C26.5185 21.2747 25.5787 21.6162 24.6078 21.6174C23.6369 21.6187 22.6963 21.2797 21.9494 20.6594C21.9219 20.6387 21.9287 20.625 21.9631 20.625H27.25C27.2775 20.625 27.2844 20.6319 27.2637 20.6525Z" fill="#2F90CF"/>
<path d="M2.85653 36.4545V27.4545H4.10085V28.5156H4.20739C4.28125 28.3793 4.38778 28.2216 4.52699 28.0426C4.66619 27.8636 4.85938 27.7074 5.10653 27.5739C5.35369 27.4375 5.6804 27.3693 6.08665 27.3693C6.61506 27.3693 7.08665 27.5028 7.50142 27.7699C7.91619 28.0369 8.24148 28.4219 8.47727 28.9247C8.71591 29.4276 8.83523 30.0327 8.83523 30.7401C8.83523 31.4474 8.71733 32.054 8.48153 32.5597C8.24574 33.0625 7.92188 33.4503 7.50994 33.723C7.09801 33.9929 6.62784 34.1278 6.09943 34.1278C5.7017 34.1278 5.37642 34.0611 5.12358 33.9276C4.87358 33.794 4.67756 33.6378 4.53551 33.4588C4.39347 33.2798 4.28409 33.1207 4.20739 32.9815H4.13068V36.4545H2.85653ZM4.10511 30.7273C4.10511 31.1875 4.17188 31.5909 4.3054 31.9375C4.43892 32.2841 4.6321 32.5554 4.88494 32.7514C5.13778 32.9446 5.44744 33.0412 5.81392 33.0412C6.1946 33.0412 6.51278 32.9403 6.76847 32.7386C7.02415 32.5341 7.21733 32.2571 7.34801 31.9077C7.48153 31.5582 7.5483 31.1648 7.5483 30.7273C7.5483 30.2955 7.48295 29.9077 7.35227 29.5639C7.22443 29.2202 7.03125 28.9489 6.77273 28.75C6.51705 28.5511 6.19744 28.4517 5.81392 28.4517C5.4446 28.4517 5.1321 28.5469 4.87642 28.7372C4.62358 28.9276 4.43182 29.1932 4.30114 29.5341C4.17045 29.875 4.10511 30.2727 4.10511 30.7273ZM10.2628 34V27.4545H11.4943V28.4943H11.5625C11.6818 28.142 11.892 27.8651 12.1932 27.6634C12.4972 27.4588 12.8409 27.3565 13.2244 27.3565C13.304 27.3565 13.3977 27.3594 13.5057 27.3651C13.6165 27.3707 13.7031 27.3778 13.7656 27.3864V28.6051C13.7145 28.5909 13.6236 28.5753 13.4929 28.5582C13.3622 28.5384 13.2315 28.5284 13.1009 28.5284C12.7997 28.5284 12.5313 28.5923 12.2955 28.7202C12.0625 28.8452 11.8778 29.0199 11.7415 29.2443C11.6051 29.4659 11.5369 29.7187 11.5369 30.0028V34H10.2628ZM17.391 34.1321C16.7773 34.1321 16.2418 33.9915 15.7844 33.7102C15.3271 33.429 14.9719 33.0355 14.7191 32.5298C14.4663 32.0241 14.3398 31.4332 14.3398 30.7571C14.3398 30.0781 14.4663 29.4844 14.7191 28.9759C14.9719 28.4673 15.3271 28.0724 15.7844 27.7912C16.2418 27.5099 16.7773 27.3693 17.391 27.3693C18.0046 27.3693 18.5401 27.5099 18.9975 27.7912C19.4549 28.0724 19.81 28.4673 20.0629 28.9759C20.3157 29.4844 20.4421 30.0781 20.4421 30.7571C20.4421 31.4332 20.3157 32.0241 20.0629 32.5298C19.81 33.0355 19.4549 33.429 18.9975 33.7102C18.5401 33.9915 18.0046 34.1321 17.391 34.1321ZM17.3952 33.0625C17.793 33.0625 18.1225 32.9574 18.3839 32.7472C18.6452 32.5369 18.8384 32.2571 18.9634 31.9077C19.0913 31.5582 19.1552 31.1733 19.1552 30.7528C19.1552 30.3352 19.0913 29.9517 18.9634 29.6023C18.8384 29.25 18.6452 28.9673 18.3839 28.7543C18.1225 28.5412 17.793 28.4347 17.3952 28.4347C16.9947 28.4347 16.6623 28.5412 16.3981 28.7543C16.1367 28.9673 15.9421 29.25 15.8143 29.6023C15.6893 29.9517 15.6268 30.3352 15.6268 30.7528C15.6268 31.1733 15.6893 31.5582 15.8143 31.9077C15.9421 32.2571 16.1367 32.5369 16.3981 32.7472C16.6623 32.9574 16.9947 33.0625 17.3952 33.0625ZM24.9197 27.4545V28.4773H21.3445V27.4545H24.9197ZM22.3033 25.8864H23.5774V32.0781C23.5774 32.3253 23.6143 32.5114 23.6882 32.6364C23.7621 32.7585 23.8572 32.8423 23.9737 32.8878C24.093 32.9304 24.2223 32.9517 24.3615 32.9517C24.4638 32.9517 24.5533 32.9446 24.63 32.9304C24.7067 32.9162 24.7663 32.9048 24.8089 32.8963L25.0391 33.9489C24.9652 33.9773 24.8601 34.0057 24.7237 34.0341C24.5874 34.0653 24.4169 34.0824 24.2124 34.0852C23.8771 34.0909 23.5646 34.0312 23.2749 33.9062C22.9851 33.7812 22.7507 33.5881 22.5717 33.3267C22.3928 33.0653 22.3033 32.7372 22.3033 32.3423V25.8864ZM29.0799 34.1321C28.435 34.1321 27.8796 33.9943 27.4137 33.7188C26.9506 33.4403 26.5927 33.0497 26.3398 32.5469C26.0898 32.0412 25.9648 31.4489 25.9648 30.7699C25.9648 30.0994 26.0898 29.5085 26.3398 28.9972C26.5927 28.4858 26.945 28.0866 27.3967 27.7997C27.8512 27.5128 28.3825 27.3693 28.9904 27.3693C29.3597 27.3693 29.7177 27.4304 30.0643 27.5526C30.4109 27.6747 30.7219 27.8665 30.9975 28.1278C31.2731 28.3892 31.4904 28.7287 31.6495 29.1463C31.8086 29.5611 31.8881 30.0653 31.8881 30.6591V31.1108H26.685V30.1562H30.6396C30.6396 29.821 30.5714 29.5241 30.435 29.2656C30.2987 29.0043 30.1069 28.7983 29.8597 28.6477C29.6154 28.4972 29.3285 28.4219 28.9989 28.4219C28.641 28.4219 28.3285 28.5099 28.0614 28.6861C27.7972 28.8594 27.5927 29.0866 27.4478 29.3679C27.3058 29.6463 27.2347 29.9489 27.2347 30.2756V31.0213C27.2347 31.4588 27.3114 31.831 27.4648 32.1378C27.6211 32.4446 27.8384 32.679 28.1168 32.8409C28.3952 33 28.7205 33.0795 29.0927 33.0795C29.3342 33.0795 29.5543 33.0455 29.7532 32.9773C29.9521 32.9062 30.1239 32.8011 30.2688 32.6619C30.4137 32.5227 30.5245 32.3509 30.6012 32.1463L31.8072 32.3636C31.7106 32.7187 31.5373 33.0298 31.2873 33.2969C31.0401 33.5611 30.729 33.767 30.354 33.9148C29.9819 34.0597 29.5572 34.1321 29.0799 34.1321ZM35.2067 34.1449C34.7919 34.1449 34.4169 34.0682 34.0817 33.9148C33.7464 33.7585 33.4808 33.5327 33.2848 33.2372C33.0916 32.9418 32.995 32.5795 32.995 32.1506C32.995 31.7812 33.0661 31.4773 33.2081 31.2386C33.3501 31 33.5419 30.8111 33.7834 30.6719C34.0249 30.5327 34.2947 30.4276 34.593 30.3565C34.8913 30.2855 35.1953 30.2315 35.505 30.1946C35.897 30.1491 36.2152 30.1122 36.4595 30.0838C36.7038 30.0526 36.8814 30.0028 36.9922 29.9347C37.103 29.8665 37.1584 29.7557 37.1584 29.6023V29.5724C37.1584 29.2003 37.0533 28.9119 36.843 28.7074C36.6357 28.5028 36.326 28.4006 35.9141 28.4006C35.4851 28.4006 35.147 28.4957 34.8999 28.6861C34.6555 28.8736 34.4865 29.0824 34.3928 29.3125L33.1953 29.0398C33.3374 28.642 33.5447 28.321 33.8175 28.0767C34.093 27.8295 34.4098 27.6506 34.7678 27.5398C35.1257 27.4261 35.5021 27.3693 35.897 27.3693C36.1584 27.3693 36.4354 27.4006 36.728 27.4631C37.0234 27.5227 37.299 27.6335 37.5547 27.7955C37.8132 27.9574 38.0249 28.1889 38.1896 28.4901C38.3544 28.7884 38.4368 29.1761 38.4368 29.6534V34H37.1925V33.1051H37.1413C37.0589 33.2699 36.9354 33.4318 36.7706 33.5909C36.6058 33.75 36.3942 33.8821 36.1357 33.9872C35.8771 34.0923 35.5675 34.1449 35.2067 34.1449ZM35.4837 33.1222C35.8359 33.1222 36.1371 33.0526 36.3871 32.9134C36.6399 32.7741 36.8317 32.5923 36.9624 32.3679C37.0959 32.1406 37.1626 31.8977 37.1626 31.6392V30.7955C37.1172 30.8409 37.0291 30.8835 36.8984 30.9233C36.7706 30.9602 36.6243 30.9929 36.4595 31.0213C36.2947 31.0469 36.1342 31.071 35.978 31.0938C35.8217 31.1136 35.6911 31.1307 35.5859 31.1449C35.3388 31.1761 35.1129 31.2287 34.9084 31.3026C34.7067 31.3764 34.5447 31.483 34.4226 31.6222C34.3033 31.7585 34.2436 31.9403 34.2436 32.1676C34.2436 32.483 34.3601 32.7216 34.593 32.8835C34.826 33.0426 35.1229 33.1222 35.4837 33.1222ZM41.408 30.1136V34H40.1339V27.4545H41.3569V28.5199H41.4379C41.5884 28.1733 41.8242 27.8949 42.1452 27.6847C42.4691 27.4744 42.8768 27.3693 43.3683 27.3693C43.8143 27.3693 44.2049 27.4631 44.5401 27.6506C44.8754 27.8352 45.1353 28.1108 45.32 28.4773C45.5046 28.8437 45.5969 29.2969 45.5969 29.8366V34H44.3228V29.9901C44.3228 29.5156 44.1992 29.1449 43.9521 28.8778C43.7049 28.608 43.3654 28.473 42.9336 28.473C42.6381 28.473 42.3754 28.5369 42.1452 28.6648C41.918 28.7926 41.7376 28.9801 41.604 29.2273C41.4734 29.4716 41.408 29.767 41.408 30.1136Z" fill="white"/>
</svg>
