<svg width="632" height="547" viewBox="0 0 632 547" fill="none" xmlns="http://www.w3.org/2000/svg">
<path d="M235.236 96.1907V-1.43812e-05H154.764V227.499C154.764 171.496 187.167 122.35 235.236 96.1907Z" fill="#21317D"/>
<path d="M325.91 76.1664V152.249C365.659 156.907 396.491 188.781 396.491 227.407C396.491 269.409 360.457 303.343 315.878 303.343C271.442 303.343 235.325 269.409 235.325 227.407H235.236V358.799C258.983 371.679 286.534 379.215 315.878 379.215C404.879 379.215 477 311.327 477 227.498C477 146.968 410.229 81.006 325.91 76.1664Z" fill="#21317D"/>
<path d="M235.236 96.1908C187.167 122.35 154.764 171.496 154.764 227.499V367.652V398.035H235.236V378.172V358.793V227.408H235.325C235.325 188.781 266.068 156.914 305.831 152.249V76.1668C280.223 77.6026 256.163 84.7395 235.236 96.1908Z" fill="#ED1C24"/>
<path d="M83.1791 544.769C83.1791 544.769 79.5273 546.183 70.8779 546.183C38.4335 546.183 49.3485 510.132 29.7123 510.132H25.1588V545.35H0V443.035H36.2308C62.3092 443.035 75.4 452.448 75.4 476.499C75.4 491.729 65.7008 499.206 60.3442 502.338C68.056 512.128 67.4863 524.222 78.8858 524.222H83.1791V544.769ZM33.5704 490.253C43.6914 490.253 50.9276 485.859 50.9276 477.426C50.9276 468.874 44.9071 464.215 35.2079 464.215H25.1588V490.253H33.5704Z" fill="#21317D"/>
<path d="M163.828 496.695C168.543 500.706 172.397 506.963 172.397 516.054C172.397 537.683 157.274 545.35 139.383 545.35H93.4304V443.035H134.448C154.277 443.035 165.879 450.759 165.879 470.728C165.879 488.153 155.511 490.754 150.231 490.754V491.161C153.55 491.161 159.077 492.741 163.828 496.695ZM128.481 483.645C136.812 483.645 140.029 480.244 140.029 473.736C140.029 467.427 135.664 464.215 126.66 464.215H118.728V483.645H128.481ZM131.46 524.217C139.706 524.217 143.42 521.228 143.42 513.173C143.42 505.085 138.181 501.864 130.917 501.864H118.728V524.217H131.46Z" fill="#21317D"/>
<path d="M184.375 545.351V443.036H209.637V524.223H248.618V545.351H184.375Z" fill="#21317D"/>
<path d="M272.803 545.351V443.036H308.235C328.127 443.036 339.674 451.109 339.674 469.891C339.674 488.352 329.302 491.478 324.623 491.478V491.729C330.949 491.729 346.126 497.386 346.126 516.924C346.126 538.227 330.056 545.351 312.102 545.351H272.803ZM307.23 486.11C318.163 486.11 321.774 480.458 321.774 471.968C321.774 463.237 316.333 457.963 304.399 457.963H290.29V486.11H307.23ZM308.832 530.447C318.849 530.447 327.252 527.084 327.252 514.862C327.252 503.506 319.267 499.207 308.719 499.207H290.29V530.447H308.832Z" fill="#ED1C24"/>
<path d="M413.612 519.02H378.175L369.562 545.351H351.388L387.112 443.036H404.769L440.431 545.351H422.311L413.612 519.02ZM382.818 504.797H409.09L395.851 465.653L382.818 504.797Z" fill="#ED1C24"/>
<path d="M508.357 545.351L470.336 476.499V545.351H452.813V443.036H471.117L509.398 513.983V443.036H526.688V545.351H508.357Z" fill="#ED1C24"/>
<path d="M627.713 531.468C615.228 531.468 614.914 509.366 604.537 498.374C603.591 497.386 598.799 491.336 590.782 489.023L627.861 443.035H605.564L568.419 488.593V488.352V443.035H550.94V494.557V521.224V545.35H568.419V521.224V516.693L579.311 503.269H580.338C600.831 503.269 594.232 546.069 622.437 546.069C628.144 546.069 631.764 545.142 631.764 545.142V531.468H627.713Z" fill="#ED1C24"/>
</svg>
